<?xml version="1.0" encoding="UTF-8" standalone="no"?>
<svg
   xmlns:dc="http://purl.org/dc/elements/1.1/"
   xmlns:cc="http://creativecommons.org/ns#"
   xmlns:rdf="http://www.w3.org/1999/02/22-rdf-syntax-ns#"
   xmlns:svg="http://www.w3.org/2000/svg"
   xmlns="http://www.w3.org/2000/svg"
   xmlns:sodipodi="http://sodipodi.sourceforge.net/DTD/sodipodi-0.dtd"
   xmlns:inkscape="http://www.inkscape.org/namespaces/inkscape"
   id="svg8"
   version="1.1"
   viewBox="0 0 79.009591 135.73711"
   height="135.73711mm"
   width="79.00959mm"
   sodipodi:docname="OL.svg"
   inkscape:version="0.92.0 r15299">
  <sodipodi:namedview
     pagecolor="#ffffff"
     bordercolor="#666666"
     borderopacity="1"
     objecttolerance="10"
     gridtolerance="10"
     guidetolerance="10"
     inkscape:pageopacity="0"
     inkscape:pageshadow="2"
     inkscape:window-width="1920"
     inkscape:window-height="1017"
     id="namedview12"
     showgrid="false"
     fit-margin-top="0"
     fit-margin-left="0"
     fit-margin-right="0"
     fit-margin-bottom="0"
     inkscape:zoom="0.58341258"
     inkscape:cx="510.64589"
     inkscape:cy="99.920148"
     inkscape:window-x="-8"
     inkscape:window-y="-8"
     inkscape:window-maximized="1"
     inkscape:current-layer="svg8" />
  <defs
     id="defs2" />
  <metadata
     id="metadata5">
    <rdf:RDF>
      <cc:Work
         rdf:about="">
        <dc:format>image/svg+xml</dc:format>
        <dc:type
           rdf:resource="http://purl.org/dc/dcmitype/StillImage" />
        <dc:title></dc:title>
      </cc:Work>
    </rdf:RDF>
  </metadata>
  <g
     id="g4505"
     transform="matrix(0.94260066,0,0,0.94260066,-5.1572127,1.0453666)"
     style="stroke-width:1.06089461">
    <path
       inkscape:connector-curvature="0"
       style="fill:#abd7e1;stroke-width:1.06089461"
       d="m 67.955626,137.5391 c -3.696468,-1.9541 -15.934448,-2.34001 -26.601432,-0.83888 -12.357045,1.73901 -17.33046,1.79481 -15.989773,0.17948 0.533606,-0.64296 3.68363,-2.1759 7.00005,-3.40653 5.198229,-1.92889 7.298274,-2.23598 15.226759,-2.2266 5.927698,0.007 10.414608,0.44572 12.622536,1.23416 4.545682,1.62323 10.127826,4.50019 10.780382,5.55604 0.685068,1.10844 -0.308198,0.94578 -3.038522,-0.49757 z m 2.625944,-29.5905 c -3.90763,-2.29987 -8.421614,-4.40001 -10.031067,-4.6669 -4.325128,-0.71726 -4.911953,-1.04441 -2.005947,-1.11842 3.492534,-0.0888 7.028589,1.22955 13.605923,5.07312 3.032242,1.77193 6.199766,3.22171 7.038928,3.22171 0.839172,0 1.293232,0.37623 1.009034,0.83607 -0.893693,1.44601 -2.317133,0.95084 -9.616871,-3.34558 z m 8.884194,-5.56586 c -2.242363,-1.62977 -5.19885,-3.434942 -6.569981,-4.011456 -2.285416,-0.960956 -2.346236,-1.086598 -0.730465,-1.509123 0.969371,-0.253429 1.762503,-0.119764 1.762503,0.297046 0,0.416771 0.437355,0.757797 0.971908,0.757797 0.747879,0 7.537639,3.868366 9.841417,5.607006 0.199271,0.15041 0.01111,0.62188 -0.418035,1.04779 -0.48011,0.4764 -2.348984,-0.36578 -4.857347,-2.18893 z m -64.89979,-8.228453 c -1.559948,-1.609452 -2.559121,-2.926282 -2.220383,-2.926282 0.338738,0 -0.339925,-1.030794 -1.508146,-2.290681 -3.5379701,-3.815543 -2.4169844,-4.236297 3.519512,-1.321043 6.965911,3.420762 14.914807,4.630695 23.619326,3.595095 3.448841,-0.410319 10.032982,-0.71308 14.631442,-0.672852 8.216311,0.07209 8.266888,0.08434 2.926283,0.71868 -2.988989,0.355022 -8.580055,1.246168 -12.424577,1.9803 -9.491985,1.812611 -18.610087,1.686366 -24.363041,-0.337331 -6.299225,-2.215845 -6.598711,-2.103539 -3.344327,1.254114 1.559939,1.609482 2.648145,2.926312 2.418219,2.926312 -0.229916,0 -1.69436,-1.31683 -3.254308,-2.926312 z M 32.027122,82.001952 c -2.122428,-0.841537 -6.680766,-3.342643 -10.129664,-5.558019 -3.448879,-2.215348 -6.945913,-4.423841 -7.771174,-4.907798 -1.074698,-0.630193 -1.28452,-1.256633 -0.739416,-2.207603 0.646946,-1.128625 2.012304,-0.521649 9.105447,4.047833 9.229528,5.945754 13.763885,7.57688 24.034259,8.645652 l 6.917231,0.719848 -8.939309,-0.165582 c -4.916625,-0.09133 -8.490878,0.119448 -7.942788,0.467836 1.671776,1.062894 -0.463528,0.572244 -4.534586,-1.042014 z"
       id="path4510" />
    <path
       inkscape:connector-curvature="0"
       style="fill:#66cce6;stroke-width:1.06089461"
       d="m 54.438928,53.522493 c -1.751887,-0.412195 -3.97541,-1.1723 -4.941162,-1.689152 -2.845856,-1.523052 0.208778,-2.713771 4.152337,-1.618605 4.368889,1.213312 9.107725,1.080777 13.957317,-0.390329 2.585094,-0.784182 4.425439,-0.958237 4.918482,-0.465184 3.453178,3.453148 -8.96036,6.310512 -18.086974,4.16327 z m 3.77274,-9.829297 c -2.046051,-1.297903 0.879868,-2.512421 5.682894,-2.35894 3.624773,0.115973 4.636449,0.450997 4.858677,1.609482 0.241548,1.259198 -0.39794,1.461341 -4.588121,1.450313 -2.677822,-0.0067 -5.35688,-0.322416 -5.95345,-0.700855 z m -18.563264,-8.107097 -3.762362,-1.077656 3.971389,-0.0673 c 3.00264,-0.05093 3.971389,0.23858 3.971389,1.186822 0,0.689768 -0.09411,1.205002 -0.209037,1.144939 -0.114958,-0.06003 -1.902085,-0.594149 -3.971389,-1.186832 z"
       id="path4508" />
    <path
       sodipodi:nodetypes="cccccsccccssccccccscccscccccccccccscccs"
       inkscape:connector-curvature="0"
       style="fill:#31a9c8;stroke-width:1.06089461"
       d="m 41.738655,126.57897 c -3.994701,-0.55742 -10.617356,-2.67775 -13.795363,-4.41673 l -2.926283,-1.60125 6.028105,-0.035 c 3.315463,-0.019 9.789748,0.56073 14.387299,1.28892 9.838535,1.55826 17.606444,0.75111 25.151081,-2.61347 6.439084,-2.87155 2.673783,-0.0411 -4.59846,3.45656 -7.454302,3.58539 -16.346586,5.02341 -24.246379,3.92105 z M 16.597023,113.59322 C 13.273566,109.66339 9.6238835,101.41592 8.6930651,95.732042 7.1526276,86.325615 7.2366539,86.284756 13.938912,93.180341 c 8.061087,8.293599 10.397721,8.989179 20.536671,6.113394 3.994691,-1.133048 8.203665,-2.300638 9.353275,-2.594639 1.14961,-0.293886 9.000675,-0.883946 17.446797,-1.31099 17.49924,-0.884732 19.382379,-1.501406 22.221553,-7.276647 0.944748,-1.92172 1.950364,-3.511614 2.234695,-3.533097 0.817,-0.06165 1.485458,6.542678 0.978456,9.666998 -0.253055,1.559393 -0.507412,2.835239 -0.565236,2.835239 -0.05782,0 -1.419496,-0.381541 -3.025914,-0.847893 -3.634843,-1.055149 -23.732839,0.980926 -32.948725,3.33797 -13.397059,3.426384 -22.142227,7.875534 -27.520734,14.001304 -1.32243,1.50619 -2.708237,2.73849 -3.079573,2.73849 -0.371326,0 -1.709246,-1.22276 -2.973154,-2.71725 z m 2.136098,-55.685257 c 2.477517,-4.762119 4.118543,-6.924219 5.776753,-7.611077 C 37.55708,44.892541 52.660954,29.400339 53.67779,20.379027 l 0.413669,-3.670146 3.718037,6.95158 c 3.055007,5.711943 3.633714,7.482172 3.245203,9.927005 -1.394327,8.77433 -9.971845,16.77114 -20.928024,19.511171 -2.563487,0.641097 -9.507638,3.758878 -19.145819,8.59611 l -5.708322,2.864878 z M 46.618958,6.9927154 c 0.638483,-1.2645676 1.354234,-2.8635889 1.590555,-3.5533523 0.282024,-0.8231475 0.65111,-0.4193321 1.074085,1.1752022 0.501037,1.8888245 0.302407,2.6793926 -0.892802,3.5533522 C 45.99047,9.9230744 45.352925,9.500203 46.618958,6.9927154 Z"
       id="path4502" />
    <path
       inkscape:connector-curvature="0"
       style="fill:#447784;stroke-width:1.06089461"
       d="M 18.896148,70.789433 C 17.369075,69.70991 16.11431,68.505606 16.10779,68.113171 c -0.0067,-0.392445 -0.360738,-1.1339 -0.787149,-1.647718 -1.006909,-1.213254 -0.07209,-1.930317 7.376249,-5.657755 6.620663,-3.313223 6.918551,-3.407387 6.918551,-2.186933 0,0.459842 -0.470287,0.841852 -1.045096,0.848898 -0.57481,0.0067 -1.599602,0.363466 -2.277317,0.792051 -1.038798,0.656903 -0.908024,1.147045 0.833044,3.122491 l 2.065255,2.343259 -2.617059,-2.36254 -2.617051,-2.362568 -4.341422,2.199991 c -3.596559,1.822491 -4.169455,2.407152 -3.339129,3.407646 0.551259,0.664227 0.684388,1.207683 0.295839,1.207683 -0.388548,0 0.198516,0.633869 1.304567,1.408573 1.24365,0.87108 3.308589,1.336417 5.411544,1.219535 3.737969,-0.207926 8.835073,-1.78255 8.835073,-2.729634 0,-0.573508 1.811453,-1.105056 6.897681,-2.024012 1.276459,-0.230683 2.299221,-0.03638 2.299221,0.437028 0,0.468813 -1.066005,0.852441 -2.368896,0.852441 -1.302891,0 -2.630616,0.261642 -2.950485,0.581568 -0.319878,0.319879 -1.040999,0.661288 -1.602492,0.758707 -0.561503,0.09733 -2.841472,0.996828 -5.066594,1.998643 -2.563103,1.154023 -4.810111,1.629672 -6.131651,1.297999 -1.343951,-0.337302 -1.894789,-0.214254 -1.548527,0.346052 0.746577,1.207999 0.415977,1.067001 -2.755798,-1.175143 z m 24.32155,-4.387241 c 0.813476,-0.212043 1.942188,-0.198133 2.508247,0.03159 0.566051,0.229103 -0.09951,0.402497 -1.479062,0.385457 -1.379536,-0.0158 -1.842671,-0.204451 -1.029185,-0.416417 z M 70.895005,63.207555 C 63.931353,61.330209 56.807748,58.660677 56.525082,57.82251 c -0.144665,-0.428996 -0.8648,-0.549048 -1.600301,-0.266697 -0.939961,0.360709 -1.141205,0.195921 -0.677361,-0.554582 0.494441,-0.800016 0.188148,-0.918009 -1.221669,-0.470555 -1.347389,0.427676 -1.707265,0.315054 -1.267613,-0.396197 0.747036,-1.208736 4.656858,-0.414369 5.90025,1.198741 0.893511,1.159241 6.506251,2.947871 8.744681,2.786711 3.384937,-0.243645 6.688654,0.262591 6.688654,1.025127 0,0.480415 -1.00283,0.657161 -2.29923,0.405206 -1.90063,-0.369373 -2.009337,-0.310305 -0.627053,0.341572 0.919685,0.433639 2.988989,0.599385 4.598451,0.368358 2.213357,-0.317743 2.620746,-0.204135 1.672159,0.465749 -1.040444,0.734917 -0.938065,0.888025 0.600831,0.898642 1.390995,0.0096 1.73722,-0.353127 1.384275,-1.450342 -0.397289,-1.234996 -0.330017,-1.267603 0.431476,-0.208883 0.496183,0.689768 0.907909,1.536302 0.914946,1.881186 0.01924,0.949381 -4.075195,0.654624 -8.872573,-0.638732 z M 44.664928,61.361016 c -0.689768,-0.259757 -2.194717,-0.854652 -3.344327,-1.32221 -1.149611,-0.467549 -2.56051,-0.773278 -3.13531,-0.679391 -0.57481,0.09382 -1.045106,-0.221836 -1.045106,-0.701993 0,-1.262041 0.817784,-1.109507 6.337614,1.182121 4.136225,1.717231 5.146321,3.011793 1.187129,1.521473 z M 30.947694,57.911093 c -0.241232,-0.390291 0.756352,-0.743647 2.216851,-0.785167 1.930164,-0.05495 2.321919,0.13556 1.434354,0.696871 -1.536752,0.972052 -3.081928,1.009398 -3.651205,0.08817 z m 18.315685,-2.634646 c 0.284207,-0.459842 0.682636,-0.836079 0.88543,-0.836079 0.202776,0 0.368694,0.376237 0.368694,0.836079 0,0.459842 -0.398438,0.83607 -0.885421,0.83607 -0.486993,0 -0.652901,-0.376228 -0.368703,-0.83607 z m -4.598451,-0.836079 c -1.980405,-0.634242 -1.947463,-0.6738 0.627062,-0.752743 1.494494,-0.04586 2.717265,0.292939 2.717265,0.752743 0,0.944872 -0.393958,0.944872 -3.344327,0 z M 63.476776,48.7636 c 3.665575,-0.251543 4.566189,-0.530791 3.344337,-1.037275 -1.469938,-0.609342 -1.394107,-0.70028 0.627053,-0.751948 1.512492,-0.03858 2.29923,0.370378 2.29923,1.195362 0,1.006525 -1.114189,1.222914 -5.643558,1.096047 l -5.643557,-0.158001 z m -8.38153,-0.978398 c 0.295581,-0.478272 1.518534,-0.869568 2.717649,-0.869568 2.620764,0 2.317563,0.400458 -0.885804,1.170021 -1.554023,0.373289 -2.184349,0.269857 -1.831845,-0.30052 z"
       id="path4500" />
    <path
       sodipodi:nodetypes="cscccscccccccccscssscccccsscccccscsccsssccs"
       inkscape:connector-curvature="0"
       style="fill:#164552;stroke-width:1.06089461"
       d="m 63.139283,117.1156 c -7.42762,-1.86177 -15.761733,-2.19531 -31.433619,-1.25809 -11.693087,0.69928 -11.703618,0.69827 -10.213576,-0.98392 0.970118,-1.09519 3.016168,-1.86456 5.852575,-2.20062 2.398555,-0.28409 6.542717,-1.08697 9.209262,-1.78395 9.468405,-2.47478 23.938668,-1.2597 35.207201,2.9564 4.417513,1.6528 4.676705,1.88835 3.209064,2.91633 -2.696079,1.88838 -5.387487,1.96889 -11.830907,0.35385 z M 78.285873,89.099144 C 76.314266,88.479023 70.334508,87.565312 64.997502,87.06866 59.660506,86.571998 52.432062,85.705657 48.934301,85.143494 42.595681,84.124676 42.58851,84.120598 46.755141,83.902849 57.467656,83.342955 57.341918,81.586061 46.546142,80.982253 41.285035,80.68806 36.78408,79.911767 33.853404,78.793232 28.516522,76.756353 14.587639,67.775046 14.886714,66.563572 c 0.113503,-0.459843 2.161008,-1.896695 4.54998,-3.193019 l 4.343577,-2.356949 3.486139,2.984021 c 1.917373,1.641207 3.794653,2.98401 4.171723,2.98401 0.37707,0 0.685585,0.316001 0.685585,0.702252 0,0.815497 -5.133062,2.504706 -8.778858,2.888956 l -2.508247,0.264496 2.257815,0.660722 c 1.659225,0.485537 3.432547,0.123555 6.688664,-1.364831 3.871193,-1.769722 4.747644,-1.895968 6.939077,-0.999509 2.369356,0.969237 6.472351,1.864873 28.426804,6.205252 8.813485,1.742419 20.484017,6.12113 20.484017,7.685463 0,0.796723 -3.247893,7.42381 -3.570347,7.284985 -0.105605,-0.04547 -1.805153,-0.590032 -3.77676,-1.210114 z M 34.422929,58.067064 c 0.57481,-0.231936 1.515403,-0.231936 2.090203,0 0.57481,0.231946 0.104504,0.42174 -1.045097,0.42174 -1.14961,0 -1.619906,-0.189918 -1.045106,-0.42174 z m 4.383785,-35.600291 c 4.566275,-8.677412 5.170198,-9.448862 7.733273,-9.878526 1.529112,-0.256276 3.175719,-0.710557 3.659131,-1.009303 0.907957,-0.561152 3.662731,4.34275 3.662731,6.520241 0,0.674154 -0.742815,1.225762 -1.650705,1.225762 -0.90788,0 -4.214622,2.206689 -7.348313,4.903777 -3.133692,2.697085 -6.892723,5.521812 -8.353413,6.27714 l -2.655785,1.373371 z"
       id="path4498" />
  </g>
</svg>
