<?xml version="1.0" encoding="UTF-8" standalone="no"?>
<!-- Created with Inkscape (http://www.inkscape.org/) -->

<svg
   xmlns:dc="http://purl.org/dc/elements/1.1/"
   xmlns:cc="http://creativecommons.org/ns#"
   xmlns:rdf="http://www.w3.org/1999/02/22-rdf-syntax-ns#"
   xmlns:svg="http://www.w3.org/2000/svg"
   xmlns="http://www.w3.org/2000/svg"
   xmlns:sodipodi="http://sodipodi.sourceforge.net/DTD/sodipodi-0.dtd"
   xmlns:inkscape="http://www.inkscape.org/namespaces/inkscape"
   width="541.51392mm"
   height="176.04776mm"
   viewBox="0 0 541.51392 176.04776"
   version="1.1"
   id="svg8"
   inkscape:export-filename="D:\WEB_GIS\GIS_WEB\me-resume-personal-portfolio-responsive-template\images\banner_bg.png"
   inkscape:export-xdpi="72"
   inkscape:export-ydpi="72"
   inkscape:version="0.92.4 (5da689c313, 2019-01-14)"
   sodipodi:docname="PART_WEB PROFIL.svg">
  <defs
     id="defs2" />
  <sodipodi:namedview
     id="base"
     pagecolor="#ffffff"
     bordercolor="#666666"
     borderopacity="1.0"
     inkscape:pageopacity="0.0"
     inkscape:pageshadow="2"
     inkscape:zoom="0.49497475"
     inkscape:cx="981.26779"
     inkscape:cy="133.30596"
     inkscape:document-units="mm"
     inkscape:current-layer="layer1"
     showgrid="false"
     fit-margin-top="0"
     fit-margin-left="0"
     fit-margin-right="0"
     fit-margin-bottom="0"
     showguides="false"
     inkscape:window-width="1366"
     inkscape:window-height="697"
     inkscape:window-x="-8"
     inkscape:window-y="-8"
     inkscape:window-maximized="1" />
  <metadata
     id="metadata5">
    <rdf:RDF>
      <cc:Work
         rdf:about="">
        <dc:format>image/svg+xml</dc:format>
        <dc:type
           rdf:resource="http://purl.org/dc/dcmitype/StillImage" />
        <dc:title />
      </cc:Work>
    </rdf:RDF>
  </metadata>
  <g
     inkscape:label="Layer 1"
     inkscape:groupmode="layer"
     id="layer1"
     transform="translate(288.14386,-18.193118)">
    <path
       sodipodi:nodetypes="cczzszscc"
       inkscape:connector-curvature="0"
       id="path877"
       d="m -305.01088,-6.9410137 c -2.65501,9.9609098 2.23865,19.5402877 6.9858,24.9184657 8.62522,10.811781 -17.97168,24.611577 11.50988,34.100093 29.48157,9.488525 18.77648,-8.919424 49.05877,-15.092854 30.2823,-6.173425 19.33133,-26.215536 21.00872,-39.369102 3.42242,-26.837753 -25.93633,-36.208377 -44.0564,-42.040297 -18.12007,-5.831897 -30.75084,16.470458 -40.33236,29.110659 -2.09596,2.765032 -3.43121,5.583905 -4.17461,8.3729618 z"
       style="fill:#e3f4d7;fill-opacity:1;stroke:none;stroke-width:0.07551338px;stroke-linecap:butt;stroke-linejoin:miter;stroke-opacity:1" />
    <path
       style="fill:none;stroke:#03b2d0;stroke-width:0.4083567px;stroke-linecap:butt;stroke-linejoin:miter;stroke-opacity:1"
       d="M 169.37243,133.94495 C 141.40072,88.671843 183.52748,99.247968 196.26437,86.511101 236.57269,46.20277 262.58376,35.212309 292.40434,89.674689"
       id="path1321"
       inkscape:connector-curvature="0"
       sodipodi:nodetypes="ccc" />
    <path
       inkscape:connector-curvature="0"
       id="path1323"
       d="m 177.40261,124.6815 c -4.30022,-38.609222 23.2571,-20.47855 35.87319,-29.668285 39.92603,-29.082756 45.94042,-25.515791 90.67501,12.664825"
       style="fill:none;stroke:#03b2d0;stroke-width:0.35384685px;stroke-linecap:butt;stroke-linejoin:miter;stroke-opacity:1" />
    <path
       inkscape:connector-curvature="0"
       id="path882"
       d="m 42.105885,214.22612 c 0.477666,-36.66215 25.673044,-53.01895 43.824017,-53.47722 18.150958,-0.45828 54.370908,12.52398 61.845398,-20.06718 6.01798,-26.24031 15.92184,-58.696305 53.44504,-58.239349 37.5232,0.456956 69.89857,110.535809 69.89857,110.535809 z"
       style="fill:#536c53;fill-opacity:1;stroke:none;stroke-width:0.1637533px;stroke-linecap:butt;stroke-linejoin:miter;stroke-opacity:1"
       sodipodi:nodetypes="csszcc" />
    <path
       style="fill:#18392b;fill-opacity:1;stroke:none;stroke-width:0.21526109px;stroke-linecap:butt;stroke-linejoin:miter;stroke-opacity:1"
       d="m 161.5768,121.94738 c -31.99427,4.79123 -53.09195,26.79109 -62.340009,43.81272 -19.783559,32.07473 -146.148357,-17.77648 -135.054456,61.54723 11.093901,79.32371 128.450631,-27.41169 185.468965,36.49906 57.01831,63.91075 74.0059,80.60278 113.88019,70.00522 81.35711,-21.62262 70.08481,-100.52943 63.26631,-149.28373 -6.8185,-48.7543 -87.13636,-53.64223 -135.80415,-62.07098 -10.6461,-1.8438 -20.45853,-1.85163 -29.41693,-0.51008 z"
       id="path869"
       inkscape:connector-curvature="0"
       sodipodi:nodetypes="cczzszscc" />
    <path
       style="fill:none;stroke:#00c4e8;stroke-width:0.5338251px;stroke-linecap:butt;stroke-linejoin:miter;stroke-opacity:1"
       d="M -113.52954,346.32844 C -47.880272,253.17552 87.423706,279.06546 185.18442,240.57476 263.71508,209.65539 321.86232,138.53842 399.53087,134.08422"
       id="path1309"
       inkscape:connector-curvature="0" />
    <path
       style="fill:none;stroke:#00c4e8;stroke-width:0.5338251px;stroke-linecap:butt;stroke-linejoin:miter;stroke-opacity:1"
       d="M -172.06005,326.32961 C -102.36867,176.34419 118.41526,271.78474 226.59968,199.27999 286.79758,158.93564 350.10133,114.04026 407.83559,76.452706"
       id="path1311"
       inkscape:connector-curvature="0" />
    <path
       inkscape:connector-curvature="0"
       id="path1315"
       d="M -169.1043,380.86974 C -108.10605,261.56031 49.565126,280.05498 155.09866,224.01041 239.87318,178.99013 295.57146,87.137491 383.24679,74.31455"
       style="fill:none;stroke:#00c4e8;stroke-width:0.63028455px;stroke-linecap:butt;stroke-linejoin:miter;stroke-opacity:1" />
    <path
       inkscape:connector-curvature="0"
       id="path1317"
       d="M -193.30502,373.07449 C -136.04469,184.41378 129.03853,279.14301 241.4381,180.82745 303.98146,126.12099 369.38954,65.595323 429.53536,14.469497"
       style="fill:none;stroke:#00c4e8;stroke-width:0.63028455px;stroke-linecap:butt;stroke-linejoin:miter;stroke-opacity:1" />
    <path
       style="fill:#18392b;fill-opacity:1;stroke:none;stroke-width:0.04852213px;stroke-linecap:butt;stroke-linejoin:miter;stroke-opacity:1"
       d="m -309.96206,11.000029 c -1.28775,6.656124 2.18497,12.490096 5.3997,15.613181 5.88187,6.348266 -10.40105,17.315201 8.62296,21.217593 19.02402,3.902393 11.52754,-7.209194 30.44196,-13.515537 18.91441,-6.306332 11.19809,-18.458001 11.74177,-27.108255 1.10928,-17.649472 -17.8324,-21.484825 -29.52502,-23.883351 -11.69262,-2.398517 -18.80574,13.0137036 -24.36994,21.933347 -1.21718,1.951173 -1.95099,3.879279 -2.31157,5.742993 z"
       id="path869-3"
       inkscape:connector-curvature="0"
       sodipodi:nodetypes="cczzszscc" />
    <path
       style="fill:none;stroke:#03b2d0;stroke-width:0.19581637px;stroke-linecap:butt;stroke-linejoin:miter;stroke-opacity:1"
       d="m -251.46142,7.0177077 c 6.69815,15.8043473 -5.56554,10.1735863 -17.65643,16.7048943 -12.0909,6.531308 -29.8453,16.381839 -43.71358,13.402101 -13.86829,-2.979737 -14.63796,-10.997675 -28.88461,-16.332785"
       id="path1321-8"
       inkscape:connector-curvature="0"
       sodipodi:nodetypes="czzc" />
    <path
       inkscape:connector-curvature="0"
       id="path1323-4"
       d="m -243.1219,6.3789647 c 2.03324,16.9486393 -14.94655,9.0043373 -28.00861,16.5098383 -25.39429,14.591651 -39.21404,14.568039 -66.88557,-2.693769"
       style="fill:none;stroke:#03b2d0;stroke-width:0.18643682px;stroke-linecap:butt;stroke-linejoin:miter;stroke-opacity:1"
       sodipodi:nodetypes="csc" />
    <path
       sodipodi:nodetypes="ccccszscc"
       inkscape:connector-curvature="0"
       id="path870"
       d="m 108.05747,171.16436 c 17.84264,-0.20493 31.04772,-12.53059 37.39975,-22.70742 13.25693,-18.96344 42.97284,20.82679 42.97273,-31.50281 -1.2e-4,-52.329593 -29.71582,-13.609 -42.97273,-32.572383 -8.13059,-13.026351 -27.48905,-29.573212 -53.429526,-19.715437 -25.940492,9.857737 -7.741299,30.845617 -7.741275,48.91675 2.5e-5,18.07113 -18.199217,44.73192 7.741275,54.58966 5.674485,2.15639 11.033846,3.04939 16.029776,2.99201 z"
       style="fill:#e6e6e6;fill-opacity:1;stroke:none;stroke-width:0.12922011px;stroke-linecap:butt;stroke-linejoin:miter;stroke-opacity:1" />
    <path
       style="fill:#e3f4d7;fill-opacity:1;stroke:none;stroke-width:0.26662552px;stroke-linecap:butt;stroke-linejoin:miter;stroke-opacity:1"
       d="M 174.34711,106.21599 C 186.3888,80.301737 106.81099,59.047311 96.792628,64.956155 85.491226,71.621712 90.238002,88.258557 82.958438,97.325777 66.676424,117.60625 66.594151,124.54949 81.464225,148.56953 c 9.106893,14.71069 92.795375,25.20918 86.016155,-3.67125 -3.54136,-15.08671 2.32105,-28.62984 6.86673,-38.68229 z"
       id="path904"
       inkscape:connector-curvature="0" />
    <path
       style="opacity:1;fill:#44aa00;fill-opacity:1;fill-rule:evenodd;stroke:none;stroke-width:10.31767941;stroke-linecap:square;stroke-linejoin:round;stroke-miterlimit:4.4000001;stroke-dasharray:none;stroke-dashoffset:0;stroke-opacity:1;paint-order:markers stroke fill"
       d="m 65.386705,57.772715 0.770516,-0.738364 115.156979,110.351599 -0.77052,0.73836 z"
       id="rect913"
       inkscape:connector-curvature="0" />
    <path
       inkscape:connector-curvature="0"
       id="path916"
       d="m 179.73294,59.267853 -0.74949,-0.718221 -112.015479,107.341178 0.749494,0.71822 z"
       style="opacity:1;fill:#44aa00;fill-opacity:1;fill-rule:evenodd;stroke:none;stroke-width:10.03621101;stroke-linecap:square;stroke-linejoin:round;stroke-miterlimit:4.4000001;stroke-dasharray:none;stroke-dashoffset:0;stroke-opacity:1;paint-order:markers stroke fill" />
    <path
       style="color:#000000;font-style:normal;font-variant:normal;font-weight:normal;font-stretch:normal;font-size:medium;line-height:normal;font-family:sans-serif;font-variant-ligatures:normal;font-variant-position:normal;font-variant-caps:normal;font-variant-numeric:normal;font-variant-alternates:normal;font-feature-settings:normal;text-indent:0;text-align:start;text-decoration:none;text-decoration-line:none;text-decoration-style:solid;text-decoration-color:#000000;letter-spacing:normal;word-spacing:normal;text-transform:none;writing-mode:lr-tb;direction:ltr;text-orientation:mixed;dominant-baseline:auto;baseline-shift:baseline;text-anchor:start;white-space:normal;shape-padding:0;clip-rule:nonzero;display:inline;overflow:visible;visibility:visible;opacity:1;isolation:auto;mix-blend-mode:normal;color-interpolation:sRGB;color-interpolation-filters:linearRGB;solid-color:#000000;solid-opacity:1;vector-effect:none;fill:#44aa00;fill-opacity:1;fill-rule:nonzero;stroke:none;stroke-width:0.21670911px;stroke-linecap:butt;stroke-linejoin:miter;stroke-miterlimit:4;stroke-dasharray:none;stroke-dashoffset:0;stroke-opacity:1;color-rendering:auto;image-rendering:auto;shape-rendering:auto;text-rendering:auto;enable-background:accumulate"
       d="m 139.51429,91.702937 -13.08326,6.49416 -2.88433,-4.14518 -7.68229,11.347163 0.18629,0.11589 7.49926,-11.077823 2.80754,4.03712 13.16497,-6.53643 3.90569,1.64585 0.0882,-0.19418 z"
       id="path918"
       inkscape:connector-curvature="0" />
    <path
       style="color:#000000;font-style:normal;font-variant:normal;font-weight:normal;font-stretch:normal;font-size:medium;line-height:normal;font-family:sans-serif;font-variant-ligatures:normal;font-variant-position:normal;font-variant-caps:normal;font-variant-numeric:normal;font-variant-alternates:normal;font-feature-settings:normal;text-indent:0;text-align:start;text-decoration:none;text-decoration-line:none;text-decoration-style:solid;text-decoration-color:#000000;letter-spacing:normal;word-spacing:normal;text-transform:none;writing-mode:lr-tb;direction:ltr;text-orientation:mixed;dominant-baseline:auto;baseline-shift:baseline;text-anchor:start;white-space:normal;shape-padding:0;clip-rule:nonzero;display:inline;overflow:visible;visibility:visible;opacity:1;isolation:auto;mix-blend-mode:normal;color-interpolation:sRGB;color-interpolation-filters:linearRGB;solid-color:#000000;solid-opacity:1;vector-effect:none;fill:#44aa00;fill-opacity:1;fill-rule:nonzero;stroke:none;stroke-width:0.21670911px;stroke-linecap:butt;stroke-linejoin:miter;stroke-miterlimit:4;stroke-dasharray:none;stroke-dashoffset:0;stroke-opacity:1;color-rendering:auto;image-rendering:auto;shape-rendering:auto;text-rendering:auto;enable-background:accumulate"
       d="m 154.89522,69.494069 -16.32875,17.925888 -5.07414,-5.0143 -5.69513,8.64113 -7.22962,-6.70087 -18.73263,7.63733 0.0866,0.19575 18.59864,-7.58252 7.31786,6.78387 5.69022,-8.63331 5.04636,4.98612 16.24377,-17.83193 3.41381,8.69751 0.20754,-0.0752 z"
       id="path920"
       inkscape:connector-curvature="0" />
    <path
       style="opacity:1;fill:#44aa00;fill-opacity:1;fill-rule:evenodd;stroke:none;stroke-width:8.23480892;stroke-linecap:square;stroke-linejoin:round;stroke-miterlimit:4.4000001;stroke-dasharray:none;stroke-dashoffset:0;stroke-opacity:1;paint-order:markers stroke fill"
       d="m 123.10536,93.820147 h 0.84994 v 0.8334 h -0.84994 z"
       id="rect925"
       inkscape:connector-curvature="0" />
    <path
       inkscape:connector-curvature="0"
       id="path928"
       d="m 139.11172,91.410847 h 0.84992 v 0.83341 h -0.84992 z"
       style="opacity:1;fill:#44aa00;fill-opacity:1;fill-rule:evenodd;stroke:none;stroke-width:8.23480892;stroke-linecap:square;stroke-linejoin:round;stroke-miterlimit:4.4000001;stroke-dasharray:none;stroke-dashoffset:0;stroke-opacity:1;paint-order:markers stroke fill" />
    <path
       style="opacity:1;fill:#44aa00;fill-opacity:1;fill-rule:evenodd;stroke:none;stroke-width:8.23480892;stroke-linecap:square;stroke-linejoin:round;stroke-miterlimit:4.4000001;stroke-dasharray:none;stroke-dashoffset:0;stroke-opacity:1;paint-order:markers stroke fill"
       d="m 120.13245,84.027837 h 0.84993 v 0.8334 h -0.84993 z"
       id="rect925-8"
       inkscape:connector-curvature="0" />
    <path
       inkscape:connector-curvature="0"
       id="path945"
       d="m 133.10489,82.231087 h 0.84994 v 0.8334 h -0.84994 z"
       style="opacity:1;fill:#44aa00;fill-opacity:1;fill-rule:evenodd;stroke:none;stroke-width:8.23480892;stroke-linecap:square;stroke-linejoin:round;stroke-miterlimit:4.4000001;stroke-dasharray:none;stroke-dashoffset:0;stroke-opacity:1;paint-order:markers stroke fill" />
    <path
       style="opacity:1;fill:#44aa00;fill-opacity:1;fill-rule:evenodd;stroke:none;stroke-width:8.23480892;stroke-linecap:square;stroke-linejoin:round;stroke-miterlimit:4.4000001;stroke-dasharray:none;stroke-dashoffset:0;stroke-opacity:1;paint-order:markers stroke fill"
       d="m 154.38279,69.280163 h 0.84993 v 0.833405 h -0.84993 z"
       id="path947"
       inkscape:connector-curvature="0" />
    <path
       style="color:#000000;font-style:normal;font-variant:normal;font-weight:normal;font-stretch:normal;font-size:medium;line-height:normal;font-family:sans-serif;font-variant-ligatures:normal;font-variant-position:normal;font-variant-caps:normal;font-variant-numeric:normal;font-variant-alternates:normal;font-feature-settings:normal;text-indent:0;text-align:start;text-decoration:none;text-decoration-line:none;text-decoration-style:solid;text-decoration-color:#000000;letter-spacing:normal;word-spacing:normal;text-transform:none;writing-mode:lr-tb;direction:ltr;text-orientation:mixed;dominant-baseline:auto;baseline-shift:baseline;text-anchor:start;white-space:normal;shape-padding:0;clip-rule:nonzero;display:inline;overflow:visible;visibility:visible;opacity:1;isolation:auto;mix-blend-mode:normal;color-interpolation:sRGB;color-interpolation-filters:linearRGB;solid-color:#000000;solid-opacity:1;vector-effect:none;fill:#44aa00;fill-opacity:1;fill-rule:nonzero;stroke:none;stroke-width:0.21670911px;stroke-linecap:butt;stroke-linejoin:miter;stroke-miterlimit:4;stroke-dasharray:none;stroke-dashoffset:0;stroke-opacity:1;color-rendering:auto;image-rendering:auto;shape-rendering:auto;text-rendering:auto;enable-background:accumulate"
       d="m 113.92464,71.689586 -22.270648,10.437321 0.09805,0.18948 22.126838,-10.369977 11.43601,11.110697 6.02849,-10.944704 22.35562,11.163944 0.1029,-0.18792 -22.55171,-11.261034 -5.99091,10.874234 z"
       id="path949"
       inkscape:connector-curvature="0" />
    <path
       style="opacity:1;fill:#44aa00;fill-opacity:1;fill-rule:evenodd;stroke:none;stroke-width:8.23480892;stroke-linecap:square;stroke-linejoin:round;stroke-miterlimit:4.4000001;stroke-dasharray:none;stroke-dashoffset:0;stroke-opacity:1;paint-order:markers stroke fill"
       d="m 113.39837,71.40156 h 0.84992 v 0.833405 h -0.84992 z"
       id="rect925-8-1"
       inkscape:connector-curvature="0" />
    <path
       style="opacity:1;fill:#44aa00;fill-opacity:1;fill-rule:evenodd;stroke:none;stroke-width:8.23480892;stroke-linecap:square;stroke-linejoin:round;stroke-miterlimit:4.4000001;stroke-dasharray:none;stroke-dashoffset:0;stroke-opacity:1;paint-order:markers stroke fill"
       d="m 130.87135,71.704616 h 0.84994 v 0.833405 h -0.84994 z"
       id="rect925-8-19"
       inkscape:connector-curvature="0" />
    <path
       style="opacity:1;fill:#44aa00;fill-opacity:1;fill-rule:evenodd;stroke:none;stroke-width:8.23480892;stroke-linecap:square;stroke-linejoin:round;stroke-miterlimit:4.4000001;stroke-dasharray:none;stroke-dashoffset:0;stroke-opacity:1;paint-order:markers stroke fill"
       d="m 124.94161,82.538877 h 0.84993 v 0.83341 h -0.84993 z"
       id="rect925-8-19-0"
       inkscape:connector-curvature="0" />
    <path
       style="opacity:1;fill:#44aa00;fill-opacity:1;fill-rule:evenodd;stroke:none;stroke-width:8.23480892;stroke-linecap:square;stroke-linejoin:round;stroke-miterlimit:4.4000001;stroke-dasharray:none;stroke-dashoffset:0;stroke-opacity:1;paint-order:markers stroke fill"
       d="m 127.47163,90.569877 h 0.84994 v 0.8334 h -0.84994 z"
       id="rect925-8-19-4"
       inkscape:connector-curvature="0" />
    <path
       style="opacity:1;fill:#44aa00;fill-opacity:1;fill-rule:evenodd;stroke:none;stroke-width:8.23480892;stroke-linecap:square;stroke-linejoin:round;stroke-miterlimit:4.4000001;stroke-dasharray:none;stroke-dashoffset:0;stroke-opacity:1;paint-order:markers stroke fill"
       d="m 138.14518,87.084727 h 0.84993 v 0.8334 h -0.84993 z"
       id="rect925-8-19-3"
       inkscape:connector-curvature="0" />
    <path
       style="opacity:1;fill:#44aa00;fill-opacity:1;fill-rule:evenodd;stroke:none;stroke-width:8.23480892;stroke-linecap:square;stroke-linejoin:round;stroke-miterlimit:4.4000001;stroke-dasharray:none;stroke-dashoffset:0;stroke-opacity:1;paint-order:markers stroke fill"
       d="m 126.0485,97.843217 h 0.84992 v 0.8334 h -0.84992 z"
       id="rect925-8-19-6"
       inkscape:connector-curvature="0" />
    <path
       style="color:#000000;font-style:normal;font-variant:normal;font-weight:normal;font-stretch:normal;font-size:medium;line-height:normal;font-family:sans-serif;font-variant-ligatures:normal;font-variant-position:normal;font-variant-caps:normal;font-variant-numeric:normal;font-variant-alternates:normal;font-feature-settings:normal;text-indent:0;text-align:start;text-decoration:none;text-decoration-line:none;text-decoration-style:solid;text-decoration-color:#000000;letter-spacing:normal;word-spacing:normal;text-transform:none;writing-mode:lr-tb;direction:ltr;text-orientation:mixed;dominant-baseline:auto;baseline-shift:baseline;text-anchor:start;white-space:normal;shape-padding:0;clip-rule:nonzero;display:inline;overflow:visible;visibility:visible;opacity:1;isolation:auto;mix-blend-mode:normal;color-interpolation:sRGB;color-interpolation-filters:linearRGB;solid-color:#000000;solid-opacity:1;vector-effect:none;fill:#44aa00;fill-opacity:1;fill-rule:nonzero;stroke:none;stroke-width:0.21670911px;stroke-linecap:butt;stroke-linejoin:miter;stroke-miterlimit:4;stroke-dasharray:none;stroke-dashoffset:0;stroke-opacity:1;color-rendering:auto;image-rendering:auto;shape-rendering:auto;text-rendering:auto;enable-background:accumulate"
       d="m 117.24692,106.88051 c -2.17202,1.21415 -2.59443,2.65322 -2.63102,4.26105 -0.0366,1.60785 0.28162,3.39346 -0.42326,5.4199 -0.39858,1.14583 -1.37982,2.07089 -2.15712,3.14294 -0.77732,1.07204 -1.34098,2.30865 -0.84978,4.04025 l 0.21408,-0.0564 c -0.47324,-1.66828 0.056,-2.81372 0.8171,-3.8633 0.761,-1.04957 1.76513,-1.98473 2.18653,-3.19619 0.7235,-2.07994 0.39716,-3.90553 0.43306,-5.48253 0.0359,-1.57699 0.40312,-2.89836 2.52154,-4.08253 z"
       id="path1007"
       inkscape:connector-curvature="0" />
    <path
       style="color:#000000;font-style:normal;font-variant:normal;font-weight:normal;font-stretch:normal;font-size:medium;line-height:normal;font-family:sans-serif;font-variant-ligatures:normal;font-variant-position:normal;font-variant-caps:normal;font-variant-numeric:normal;font-variant-alternates:normal;font-feature-settings:normal;text-indent:0;text-align:start;text-decoration:none;text-decoration-line:none;text-decoration-style:solid;text-decoration-color:#000000;letter-spacing:normal;word-spacing:normal;text-transform:none;writing-mode:lr-tb;direction:ltr;text-orientation:mixed;dominant-baseline:auto;baseline-shift:baseline;text-anchor:start;white-space:normal;shape-padding:0;clip-rule:nonzero;display:inline;overflow:visible;visibility:visible;opacity:1;isolation:auto;mix-blend-mode:normal;color-interpolation:sRGB;color-interpolation-filters:linearRGB;solid-color:#000000;solid-opacity:1;vector-effect:none;fill:#44aa00;fill-opacity:1;fill-rule:nonzero;stroke:none;stroke-width:0.21670911px;stroke-linecap:butt;stroke-linejoin:miter;stroke-miterlimit:4;stroke-dasharray:none;stroke-dashoffset:0;stroke-opacity:1;color-rendering:auto;image-rendering:auto;shape-rendering:auto;text-rendering:auto;enable-background:accumulate"
       d="m 111.91458,101.75972 c -1.28089,1.77299 -0.85952,4.03782 -0.3922,6.32191 0.46733,2.28408 0.98026,4.59511 -0.0115,6.49572 -1.23464,2.36622 -3.08068,4.24323 -4.41392,6.38141 -1.33325,2.13817 -2.14455,4.54736 -1.28774,7.93487 l 0.21571,-0.0501 c -0.8437,-3.33569 -0.053,-5.66423 1.26322,-7.77514 1.31624,-2.1109 3.16742,-3.99399 4.42046,-6.3955 1.03712,-1.98764 0.49784,-4.35056 0.0311,-6.63196 -0.46678,-2.28141 -0.86112,-4.47399 0.35625,-6.15903 z"
       id="path1009"
       inkscape:connector-curvature="0" />
    <path
       style="color:#000000;font-style:normal;font-variant:normal;font-weight:normal;font-stretch:normal;font-size:medium;line-height:normal;font-family:sans-serif;font-variant-ligatures:normal;font-variant-position:normal;font-variant-caps:normal;font-variant-numeric:normal;font-variant-alternates:normal;font-feature-settings:normal;text-indent:0;text-align:start;text-decoration:none;text-decoration-line:none;text-decoration-style:solid;text-decoration-color:#000000;letter-spacing:normal;word-spacing:normal;text-transform:none;writing-mode:lr-tb;direction:ltr;text-orientation:mixed;dominant-baseline:auto;baseline-shift:baseline;text-anchor:start;white-space:normal;shape-padding:0;clip-rule:nonzero;display:inline;overflow:visible;visibility:visible;opacity:1;isolation:auto;mix-blend-mode:normal;color-interpolation:sRGB;color-interpolation-filters:linearRGB;solid-color:#000000;solid-opacity:1;vector-effect:none;fill:#44aa00;fill-opacity:1;fill-rule:nonzero;stroke:none;stroke-width:0.21670911px;stroke-linecap:butt;stroke-linejoin:miter;stroke-miterlimit:4;stroke-dasharray:none;stroke-dashoffset:0;stroke-opacity:1;color-rendering:auto;image-rendering:auto;shape-rendering:auto;text-rendering:auto;enable-background:accumulate"
       d="m 105.27163,94.665787 c -2.63668,3.08814 -2.69026,6.439403 -2.41205,9.920543 0.27821,3.48116 0.88167,7.10247 -0.40201,10.7928 -1.50568,4.32855 -3.993668,8.03111 -5.914105,11.95477 -1.920436,3.92365 -3.271263,8.07327 -2.47742,13.27333 l 0.218981,-0.0313 c -0.786215,-5.15009 0.545886,-9.24492 2.457811,-13.15118 1.911924,-3.90626 4.407093,-7.61769 5.923913,-11.97825 1.30395,-3.74863 0.69068,-7.40688 0.41345,-10.8758 -0.27723,-3.46894 -0.22502,-6.739063 2.36302,-9.770223 z"
       id="path1011"
       inkscape:connector-curvature="0" />
    <path
       style="color:#000000;font-style:normal;font-variant:normal;font-weight:normal;font-stretch:normal;font-size:medium;line-height:normal;font-family:sans-serif;font-variant-ligatures:normal;font-variant-position:normal;font-variant-caps:normal;font-variant-numeric:normal;font-variant-alternates:normal;font-feature-settings:normal;text-indent:0;text-align:start;text-decoration:none;text-decoration-line:none;text-decoration-style:solid;text-decoration-color:#000000;letter-spacing:normal;word-spacing:normal;text-transform:none;writing-mode:lr-tb;direction:ltr;text-orientation:mixed;dominant-baseline:auto;baseline-shift:baseline;text-anchor:start;white-space:normal;shape-padding:0;clip-rule:nonzero;display:inline;overflow:visible;visibility:visible;opacity:1;isolation:auto;mix-blend-mode:normal;color-interpolation:sRGB;color-interpolation-filters:linearRGB;solid-color:#000000;solid-opacity:1;vector-effect:none;fill:#44aa00;fill-opacity:1;fill-rule:nonzero;stroke:none;stroke-width:0.21670911px;stroke-linecap:butt;stroke-linejoin:miter;stroke-miterlimit:4;stroke-dasharray:none;stroke-dashoffset:0;stroke-opacity:1;color-rendering:auto;image-rendering:auto;shape-rendering:auto;text-rendering:auto;enable-background:accumulate"
       d="m 95.097214,86.095127 c -4.134727,4.84267 -3.564813,9.95928 -2.505201,15.367063 1.059611,5.40777 2.600309,11.12073 0.472279,17.23842 -2.711309,7.79447 -9.294153,12.91065 -11.630476,21.86591 -0.470832,1.80473 -0.288761,3.75212 -0.08335,5.6955 0.205417,1.94338 0.434024,3.88264 0.08171,5.66732 l 0.217346,0.0408 c 0.360984,-1.8286 0.125151,-3.78839 -0.08007,-5.72996 -0.205226,-1.94156 -0.380002,-3.86464 0.07844,-5.62189 2.317338,-8.8825 8.89122,-13.98484 11.627208,-21.85025 2.151236,-6.18442 0.591882,-11.94729 -0.465742,-17.34491 -1.057622,-5.397623 -1.62235,-10.416033 2.45781,-15.194803 z"
       id="path1013"
       inkscape:connector-curvature="0" />
    <path
       style="color:#000000;font-style:normal;font-variant:normal;font-weight:normal;font-stretch:normal;font-size:medium;line-height:normal;font-family:sans-serif;font-variant-ligatures:normal;font-variant-position:normal;font-variant-caps:normal;font-variant-numeric:normal;font-variant-alternates:normal;font-feature-settings:normal;text-indent:0;text-align:start;text-decoration:none;text-decoration-line:none;text-decoration-style:solid;text-decoration-color:#000000;letter-spacing:normal;word-spacing:normal;text-transform:none;writing-mode:lr-tb;direction:ltr;text-orientation:mixed;dominant-baseline:auto;baseline-shift:baseline;text-anchor:start;white-space:normal;shape-padding:0;clip-rule:nonzero;display:inline;overflow:visible;visibility:visible;opacity:1;isolation:auto;mix-blend-mode:normal;color-interpolation:sRGB;color-interpolation-filters:linearRGB;solid-color:#000000;solid-opacity:1;vector-effect:none;fill:#44aa00;fill-opacity:1;fill-rule:evenodd;stroke:none;stroke-width:0.32762322;stroke-linecap:square;stroke-linejoin:round;stroke-miterlimit:4.4000001;stroke-dasharray:none;stroke-dashoffset:0;stroke-opacity:1;paint-order:markers stroke fill;color-rendering:auto;image-rendering:auto;shape-rendering:auto;text-rendering:auto;enable-background:accumulate"
       d="m 122.84073,123.24824 c -0.0269,0.004 -0.0484,0.0124 -0.0703,0.0204 -0.0437,0.016 -0.0881,0.0366 -0.14055,0.0643 -0.10502,0.0551 -0.23642,0.13488 -0.38893,0.23176 -0.30503,0.19375 -0.69077,0.45847 -1.0704,0.73131 -0.37962,0.27284 -0.75329,0.55351 -1.0328,0.77987 -0.13975,0.11318 -0.25523,0.21169 -0.3399,0.29285 -0.0423,0.0405 -0.0763,0.0755 -0.10458,0.11114 -0.0141,0.0178 -0.0269,0.036 -0.0392,0.0595 -0.0123,0.0235 -0.0305,0.0525 -0.0228,0.11275 0.008,0.0604 0.033,0.0864 0.0507,0.10647 0.0177,0.02 0.0341,0.0328 0.0523,0.047 0.0363,0.0282 0.078,0.0548 0.12909,0.0845 0.10235,0.0596 0.23983,0.13015 0.40364,0.20827 0.32761,0.15627 0.75983,0.34442 1.19623,0.52305 0.43639,0.17862 0.8764,0.34788 1.22073,0.46666 0.17216,0.0594 0.31902,0.10502 0.43469,0.13468 0.0578,0.0148 0.10725,0.0256 0.15362,0.0313 0.0232,0.003 0.0462,0.004 0.0735,0.003 0.0274,-0.001 0.0637,-7.2e-4 0.11439,-0.0375 0.0508,-0.0365 0.0594,-0.0693 0.0686,-0.094 0.009,-0.0247 0.0144,-0.0452 0.0179,-0.0674 0.008,-0.0442 0.01,-0.093 0.0115,-0.15033 0.002,-0.11473 -0.003,-0.26348 -0.0147,-0.43848 -0.0226,-0.35002 -0.069,-0.80289 -0.12583,-1.25435 -0.0568,-0.45148 -0.12311,-0.9014 -0.18792,-1.24654 -0.0324,-0.17257 -0.0638,-0.31824 -0.0948,-0.42908 -0.0155,-0.0553 -0.031,-0.10112 -0.049,-0.14251 -0.009,-0.0207 -0.0176,-0.0408 -0.0327,-0.0626 -0.0152,-0.0219 -0.0332,-0.0513 -0.0915,-0.0752 -0.0584,-0.0238 -0.094,-0.0157 -0.12093,-0.0111 z m -0.0343,0.35861 c 0.002,0.007 0.003,0.009 0.004,0.0157 0.0265,0.095 0.0568,0.2364 0.0882,0.40404 0.0629,0.33522 0.13013,0.78097 0.18629,1.22772 0.0561,0.44677 0.10224,0.89403 0.12421,1.234 0.0111,0.16999 0.0154,0.31353 0.013,0.41186 -1.8e-4,0.008 -0.001,0.01 -0.002,0.0173 -0.007,-10e-4 -0.009,-10e-4 -0.0164,-0.003 -0.0991,-0.0255 -0.24132,-0.0707 -0.40855,-0.12841 -0.33444,-0.11537 -0.77092,-0.28363 -1.20276,-0.4604 -0.43183,-0.17676 -0.86002,-0.36186 -1.17823,-0.51364 -0.15912,-0.076 -0.29141,-0.14471 -0.37914,-0.19575 -0.007,-0.003 -0.008,-0.004 -0.013,-0.008 0.006,-0.004 0.006,-0.007 0.0115,-0.0126 0.0726,-0.0696 0.18292,-0.16568 0.31866,-0.27561 0.27148,-0.21986 0.64243,-0.49891 1.01809,-0.76891 0.37567,-0.26999 0.75777,-0.53216 1.05405,-0.72034 0.14814,-0.0941 0.27445,-0.16883 0.36443,-0.2161 0.008,-0.004 0.01,-0.004 0.0164,-0.008 z"
       id="path1015"
       inkscape:connector-curvature="0" />
    <path
       style="color:#000000;font-style:normal;font-variant:normal;font-weight:normal;font-stretch:normal;font-size:medium;line-height:normal;font-family:sans-serif;font-variant-ligatures:normal;font-variant-position:normal;font-variant-caps:normal;font-variant-numeric:normal;font-variant-alternates:normal;font-feature-settings:normal;text-indent:0;text-align:start;text-decoration:none;text-decoration-line:none;text-decoration-style:solid;text-decoration-color:#000000;letter-spacing:normal;word-spacing:normal;text-transform:none;writing-mode:lr-tb;direction:ltr;text-orientation:mixed;dominant-baseline:auto;baseline-shift:baseline;text-anchor:start;white-space:normal;shape-padding:0;clip-rule:nonzero;display:inline;overflow:visible;visibility:visible;opacity:1;isolation:auto;mix-blend-mode:normal;color-interpolation:sRGB;color-interpolation-filters:linearRGB;solid-color:#000000;solid-opacity:1;vector-effect:none;fill:#44aa00;fill-opacity:1;fill-rule:evenodd;stroke:none;stroke-width:0.32762322;stroke-linecap:square;stroke-linejoin:round;stroke-miterlimit:4.4000001;stroke-dasharray:none;stroke-dashoffset:0;stroke-opacity:1;paint-order:markers stroke fill;color-rendering:auto;image-rendering:auto;shape-rendering:auto;text-rendering:auto;enable-background:accumulate"
       d="m 122.84073,123.24824 c -0.0269,0.004 -0.0484,0.0124 -0.0703,0.0204 -0.0437,0.016 -0.0881,0.0366 -0.14055,0.0643 -0.10502,0.0551 -0.23642,0.13488 -0.38893,0.23176 -0.30503,0.19375 -0.69077,0.45847 -1.0704,0.73131 -0.37962,0.27284 -0.75329,0.55351 -1.0328,0.77987 -0.13975,0.11318 -0.25523,0.21169 -0.3399,0.29285 -0.0423,0.0405 -0.0763,0.0755 -0.10458,0.11114 -0.0141,0.0178 -0.0269,0.036 -0.0392,0.0595 -0.0123,0.0235 -0.0305,0.0525 -0.0228,0.11275 0.008,0.0604 0.033,0.0864 0.0507,0.10647 0.0177,0.02 0.0341,0.0328 0.0523,0.047 0.0363,0.0282 0.078,0.0548 0.12909,0.0845 0.10235,0.0596 0.23983,0.13015 0.40364,0.20827 0.32761,0.15627 0.75983,0.34442 1.19623,0.52305 0.43639,0.17862 0.8764,0.34788 1.22073,0.46666 0.17216,0.0594 0.31902,0.10502 0.43469,0.13468 0.0578,0.0148 0.10725,0.0256 0.15362,0.0313 0.0232,0.003 0.0462,0.004 0.0735,0.003 0.0274,-0.001 0.0637,-7.2e-4 0.11439,-0.0375 0.0508,-0.0365 0.0594,-0.0693 0.0686,-0.094 0.009,-0.0247 0.0144,-0.0452 0.0179,-0.0674 0.008,-0.0442 0.01,-0.093 0.0115,-0.15033 0.002,-0.11473 -0.003,-0.26348 -0.0147,-0.43848 -0.0226,-0.35002 -0.069,-0.80289 -0.12583,-1.25435 -0.0568,-0.45148 -0.12311,-0.9014 -0.18792,-1.24654 -0.0324,-0.17257 -0.0638,-0.31824 -0.0948,-0.42908 -0.0155,-0.0553 -0.031,-0.10112 -0.049,-0.14251 -0.009,-0.0207 -0.0176,-0.0408 -0.0327,-0.0626 -0.0152,-0.0219 -0.0332,-0.0513 -0.0915,-0.0752 -0.0584,-0.0238 -0.094,-0.0157 -0.12093,-0.0111 z m -0.0343,0.35861 c 0.002,0.007 0.003,0.009 0.004,0.0157 0.0265,0.095 0.0568,0.2364 0.0882,0.40404 0.0629,0.33522 0.13013,0.78097 0.18629,1.22772 0.0561,0.44677 0.10224,0.89403 0.12421,1.234 0.0111,0.16999 0.0154,0.31353 0.013,0.41186 -1.8e-4,0.008 -0.001,0.01 -0.002,0.0173 -0.007,-10e-4 -0.009,-10e-4 -0.0164,-0.003 -0.0991,-0.0255 -0.24132,-0.0707 -0.40855,-0.12841 -0.33444,-0.11537 -0.77092,-0.28363 -1.20276,-0.4604 -0.43183,-0.17676 -0.86002,-0.36186 -1.17823,-0.51364 -0.15912,-0.076 -0.29141,-0.14471 -0.37914,-0.19575 -0.007,-0.003 -0.008,-0.004 -0.013,-0.008 0.006,-0.004 0.006,-0.007 0.0115,-0.0126 0.0726,-0.0696 0.18292,-0.16568 0.31866,-0.27561 0.27148,-0.21986 0.64243,-0.49891 1.01809,-0.76891 0.37567,-0.26999 0.75777,-0.53216 1.05405,-0.72034 0.14814,-0.0941 0.27445,-0.16883 0.36443,-0.2161 0.008,-0.004 0.01,-0.004 0.0164,-0.008 z"
       id="path1017"
       inkscape:connector-curvature="0" />
    <path
       style="color:#000000;font-style:normal;font-variant:normal;font-weight:normal;font-stretch:normal;font-size:medium;line-height:normal;font-family:sans-serif;font-variant-ligatures:normal;font-variant-position:normal;font-variant-caps:normal;font-variant-numeric:normal;font-variant-alternates:normal;font-feature-settings:normal;text-indent:0;text-align:start;text-decoration:none;text-decoration-line:none;text-decoration-style:solid;text-decoration-color:#000000;letter-spacing:normal;word-spacing:normal;text-transform:none;writing-mode:lr-tb;direction:ltr;text-orientation:mixed;dominant-baseline:auto;baseline-shift:baseline;text-anchor:start;white-space:normal;shape-padding:0;clip-rule:nonzero;display:inline;overflow:visible;visibility:visible;opacity:1;isolation:auto;mix-blend-mode:normal;color-interpolation:sRGB;color-interpolation-filters:linearRGB;solid-color:#000000;solid-opacity:1;vector-effect:none;fill:#44aa00;fill-opacity:1;fill-rule:evenodd;stroke:none;stroke-width:0.32762322;stroke-linecap:square;stroke-linejoin:round;stroke-miterlimit:4.4000001;stroke-dasharray:none;stroke-dashoffset:0;stroke-opacity:1;paint-order:markers stroke fill;color-rendering:auto;image-rendering:auto;shape-rendering:auto;text-rendering:auto;enable-background:accumulate"
       d="m 141.00303,137.16988 c -0.0269,0.004 -0.0484,0.0124 -0.0703,0.0204 -0.0437,0.016 -0.0881,0.0366 -0.14055,0.0643 -0.10502,0.0551 -0.23641,0.1349 -0.38893,0.23178 -0.30503,0.19373 -0.69075,0.45847 -1.07038,0.73131 -0.37963,0.27283 -0.75331,0.5535 -1.03282,0.77986 -0.13974,0.11318 -0.25523,0.2117 -0.3399,0.29284 -0.0423,0.0405 -0.0763,0.0755 -0.10458,0.11114 -0.0141,0.0178 -0.0269,0.036 -0.0392,0.0595 -0.0122,0.0235 -0.0304,0.0539 -0.0228,0.11431 0.008,0.0602 0.0313,0.0849 0.049,0.10491 0.0177,0.02 0.0357,0.0344 0.0539,0.0486 0.0364,0.0282 0.078,0.0547 0.12909,0.0845 0.10235,0.0596 0.23984,0.12857 0.40364,0.2067 0.32763,0.15626 0.75984,0.34442 1.19623,0.52304 0.43639,0.17863 0.87641,0.34789 1.22073,0.46667 0.17216,0.0594 0.31903,0.10658 0.4347,0.13623 0.0578,0.0148 0.10725,0.0257 0.15361,0.0313 0.0232,0.003 0.0462,0.004 0.0735,0.003 0.0274,-0.001 0.062,-0.002 0.11276,-0.0391 0.0508,-0.0365 0.061,-0.0693 0.0703,-0.094 0.009,-0.0247 0.0144,-0.0452 0.0179,-0.0674 0.008,-0.0442 0.01,-0.093 0.0115,-0.15033 0.002,-0.11473 -0.003,-0.26347 -0.0147,-0.43849 -0.0226,-0.35 -0.0691,-0.80288 -0.12584,-1.25435 -0.0568,-0.45146 -0.12311,-0.90139 -0.18793,-1.24653 -0.0324,-0.17256 -0.0638,-0.31823 -0.0948,-0.42908 -0.0155,-0.0554 -0.031,-0.10112 -0.049,-0.1425 -0.009,-0.0207 -0.0176,-0.0406 -0.0327,-0.0626 -0.0151,-0.0219 -0.0332,-0.0513 -0.0915,-0.0752 -0.0584,-0.024 -0.094,-0.0157 -0.12094,-0.0111 z m -0.0343,0.35862 c 0.002,0.007 0.003,0.009 0.004,0.0157 0.0265,0.095 0.0568,0.23641 0.0882,0.40403 0.0629,0.33524 0.13012,0.78098 0.18629,1.22774 0.0561,0.44675 0.10224,0.89558 0.1242,1.23556 0.0111,0.16999 0.0154,0.31353 0.013,0.41186 -1.7e-4,0.007 -0.001,0.009 -0.002,0.0157 -0.007,-0.001 -0.009,-0.001 -0.0164,-0.003 -0.0991,-0.0255 -0.24132,-0.0707 -0.40855,-0.12842 -0.33444,-0.11538 -0.77092,-0.28363 -1.20275,-0.46039 -0.43184,-0.17677 -0.86003,-0.36186 -1.17825,-0.51365 -0.15911,-0.076 -0.2914,-0.14316 -0.37912,-0.1942 -0.007,-0.004 -0.007,-0.006 -0.0131,-0.009 0.006,-0.004 0.006,-0.007 0.0115,-0.0125 0.0726,-0.0696 0.18292,-0.16568 0.31866,-0.27561 0.27149,-0.21987 0.64244,-0.49736 1.0181,-0.76734 0.37567,-0.27 0.75776,-0.53217 1.05404,-0.72035 0.14814,-0.0941 0.27445,-0.17039 0.36443,-0.21768 0.008,-0.004 0.01,-0.004 0.0164,-0.008 z"
       id="path1017-9"
       inkscape:connector-curvature="0" />
    <path
       style="color:#000000;font-style:normal;font-variant:normal;font-weight:normal;font-stretch:normal;font-size:medium;line-height:normal;font-family:sans-serif;font-variant-ligatures:normal;font-variant-position:normal;font-variant-caps:normal;font-variant-numeric:normal;font-variant-alternates:normal;font-feature-settings:normal;text-indent:0;text-align:start;text-decoration:none;text-decoration-line:none;text-decoration-style:solid;text-decoration-color:#000000;letter-spacing:normal;word-spacing:normal;text-transform:none;writing-mode:lr-tb;direction:ltr;text-orientation:mixed;dominant-baseline:auto;baseline-shift:baseline;text-anchor:start;white-space:normal;shape-padding:0;clip-rule:nonzero;display:inline;overflow:visible;visibility:visible;opacity:1;isolation:auto;mix-blend-mode:normal;color-interpolation:sRGB;color-interpolation-filters:linearRGB;solid-color:#000000;solid-opacity:1;vector-effect:none;fill:#44aa00;fill-opacity:1;fill-rule:evenodd;stroke:none;stroke-width:0.32762322;stroke-linecap:square;stroke-linejoin:round;stroke-miterlimit:4.4000001;stroke-dasharray:none;stroke-dashoffset:0;stroke-opacity:1;paint-order:markers stroke fill;color-rendering:auto;image-rendering:auto;shape-rendering:auto;text-rendering:auto;enable-background:accumulate"
       d="m 119.81423,136.18488 c -0.0269,0.004 -0.0485,0.0124 -0.0703,0.0204 -0.0436,0.016 -0.088,0.0366 -0.14053,0.0643 -0.10502,0.0551 -0.23642,0.1349 -0.38893,0.23177 -0.30504,0.19374 -0.69077,0.45847 -1.0704,0.73131 -0.37963,0.27283 -0.75329,0.5535 -1.0328,0.77987 -0.13976,0.11317 -0.25523,0.21168 -0.33991,0.29284 -0.0423,0.0405 -0.0763,0.0771 -0.10457,0.11275 -0.0141,0.0178 -0.0269,0.0344 -0.0392,0.058 -0.0122,0.0235 -0.0305,0.054 -0.0228,0.11432 0.008,0.0603 0.0313,0.0849 0.049,0.10491 0.0177,0.02 0.0357,0.0344 0.0539,0.0486 0.0363,0.0282 0.078,0.0547 0.1291,0.0845 0.10235,0.0596 0.23984,0.12857 0.40364,0.20671 0.32762,0.15626 0.75984,0.34442 1.19622,0.52304 0.4364,0.17863 0.87641,0.34789 1.22074,0.46666 0.17216,0.0594 0.31902,0.10658 0.4347,0.13624 0.0578,0.0148 0.10724,0.0256 0.15361,0.0313 0.0232,0.003 0.0462,0.004 0.0735,0.003 0.0274,-0.001 0.062,-0.002 0.11276,-0.0391 0.0508,-0.0365 0.061,-0.0693 0.0703,-0.094 0.009,-0.0247 0.0144,-0.0452 0.0179,-0.0674 0.008,-0.0442 0.01,-0.093 0.0115,-0.15033 0.002,-0.11472 -0.003,-0.26347 -0.0147,-0.43848 -0.0226,-0.35002 -0.0691,-0.80288 -0.12582,-1.25436 -0.0568,-0.45146 -0.12312,-0.90138 -0.18793,-1.24652 -0.0324,-0.17257 -0.0638,-0.31825 -0.0948,-0.42908 -0.0155,-0.0554 -0.031,-0.10112 -0.049,-0.14251 -0.009,-0.0207 -0.0191,-0.0408 -0.0343,-0.0626 -0.0151,-0.0219 -0.0315,-0.0513 -0.0899,-0.0752 -0.0584,-0.0239 -0.094,-0.0157 -0.12094,-0.0111 z m -0.0343,0.35861 c 0.002,0.007 0.003,0.009 0.004,0.0156 0.0266,0.095 0.0568,0.23641 0.0882,0.40403 0.0629,0.33522 0.13014,0.78097 0.1863,1.22773 0.0561,0.44676 0.10223,0.89559 0.1242,1.23557 0.0111,0.16998 0.0154,0.31353 0.013,0.41185 -1.7e-4,0.007 -10e-4,0.009 -0.002,0.0157 -0.007,-0.001 -0.009,-0.001 -0.0164,-0.003 -0.0991,-0.0254 -0.24132,-0.0707 -0.40855,-0.12841 -0.33444,-0.11537 -0.77092,-0.28208 -1.20276,-0.45885 -0.43183,-0.17676 -0.86003,-0.36342 -1.17824,-0.5152 -0.15911,-0.076 -0.2914,-0.14315 -0.37914,-0.19418 -0.007,-0.004 -0.007,-0.006 -0.013,-0.009 0.006,-0.004 0.006,-0.007 0.0115,-0.0125 0.0726,-0.0695 0.18292,-0.16568 0.31867,-0.27561 0.27148,-0.21987 0.64242,-0.49735 1.01809,-0.76734 0.37566,-0.26998 0.75777,-0.53216 1.05405,-0.72036 0.14814,-0.0941 0.27443,-0.17037 0.36443,-0.21767 0.008,-0.004 0.01,-0.004 0.0164,-0.008 z"
       id="path1017-5"
       inkscape:connector-curvature="0" />
    <path
       style="color:#000000;font-style:normal;font-variant:normal;font-weight:normal;font-stretch:normal;font-size:medium;line-height:normal;font-family:sans-serif;font-variant-ligatures:normal;font-variant-position:normal;font-variant-caps:normal;font-variant-numeric:normal;font-variant-alternates:normal;font-feature-settings:normal;text-indent:0;text-align:start;text-decoration:none;text-decoration-line:none;text-decoration-style:solid;text-decoration-color:#000000;letter-spacing:normal;word-spacing:normal;text-transform:none;writing-mode:lr-tb;direction:ltr;text-orientation:mixed;dominant-baseline:auto;baseline-shift:baseline;text-anchor:start;white-space:normal;shape-padding:0;clip-rule:nonzero;display:inline;overflow:visible;visibility:visible;opacity:1;isolation:auto;mix-blend-mode:normal;color-interpolation:sRGB;color-interpolation-filters:linearRGB;solid-color:#000000;solid-opacity:1;vector-effect:none;fill:#44aa00;fill-opacity:1;fill-rule:evenodd;stroke:none;stroke-width:0.20324729;stroke-linecap:square;stroke-linejoin:round;stroke-miterlimit:4.4000001;stroke-dasharray:none;stroke-dashoffset:0;stroke-opacity:1;paint-order:markers stroke fill;color-rendering:auto;image-rendering:auto;shape-rendering:auto;text-rendering:auto;enable-background:accumulate"
       d="m 130.0197,128.91555 c -0.068,-0.0245 -0.085,-0.004 -0.11276,0.004 -0.0277,0.009 -0.057,0.0216 -0.0915,0.0375 -0.0689,0.0319 -0.1558,0.0769 -0.25656,0.1331 -0.20154,0.11259 -0.45658,0.26726 -0.70761,0.42596 -0.25103,0.15868 -0.49831,0.32095 -0.68308,0.45256 -0.0924,0.0658 -0.16792,0.12353 -0.22389,0.17071 -0.028,0.0236 -0.0513,0.0448 -0.0703,0.0657 -0.01,0.01 -0.0175,0.0214 -0.0262,0.036 -0.009,0.0146 -0.0239,0.0336 -0.0179,0.0752 0.006,0.0417 0.0241,0.0556 0.036,0.0674 0.0118,0.0118 0.0241,0.0202 0.036,0.0282 0.0237,0.0163 0.0513,0.0313 0.085,0.0486 0.0673,0.0344 0.15657,0.0752 0.26474,0.12057 0.21634,0.0908 0.50248,0.19995 0.79094,0.30382 0.28847,0.1039 0.57998,0.20194 0.80728,0.2709 0.11366,0.0344 0.21033,0.0611 0.28599,0.0784 0.0379,0.009 0.0705,0.0157 0.0997,0.0188 0.0146,0.001 0.028,0.002 0.0441,0.001 0.0163,-7.1e-4 0.0353,-3.4e-4 0.067,-0.0204 0.0633,-0.04 0.0553,-0.073 0.0605,-0.10023 0.006,-0.0272 0.008,-0.0553 0.008,-0.0893 0.002,-0.0677 -0.002,-0.15468 -0.01,-0.25682 -0.015,-0.20426 -0.0458,-0.46681 -0.0833,-0.72976 -0.0375,-0.26295 -0.0829,-0.52523 -0.12583,-0.72661 -0.0215,-0.10068 -0.0413,-0.18681 -0.0621,-0.25213 -0.01,-0.0326 -0.0203,-0.0596 -0.0327,-0.0845 -0.0124,-0.0251 -0.0136,-0.0554 -0.0817,-0.0799 z m -0.0899,0.20985 c 0.002,0.006 0.003,0.007 0.004,0.0125 0.0174,0.0545 0.0381,0.13609 0.0588,0.23333 0.0415,0.19448 0.0854,0.45444 0.12256,0.7141 0.0371,0.25964 0.0673,0.52003 0.0817,0.71721 0.007,0.0986 0.0112,0.18185 0.01,0.23803 -7e-5,0.003 1.1e-4,0.003 0,0.007 -0.009,-0.001 -0.0136,-0.002 -0.0245,-0.004 -0.0664,-0.015 -0.16043,-0.0415 -0.27127,-0.0752 -0.2217,-0.0673 -0.51001,-0.16487 -0.79586,-0.2678 -0.28584,-0.1029 -0.57028,-0.21063 -0.78113,-0.2991 -0.10402,-0.0437 -0.18992,-0.083 -0.24839,-0.11275 0.0481,-0.0403 0.118,-0.0956 0.2059,-0.15815 0.1797,-0.12802 0.42471,-0.28918 0.67328,-0.44632 0.24858,-0.15714 0.50158,-0.31006 0.69779,-0.41968 0.0981,-0.0549 0.18182,-0.0991 0.24187,-0.12685 0.0111,-0.004 0.0154,-0.007 0.0245,-0.0111 z"
       id="path1017-7"
       inkscape:connector-curvature="0" />
    <path
       style="color:#000000;font-style:normal;font-variant:normal;font-weight:normal;font-stretch:normal;font-size:medium;line-height:normal;font-family:sans-serif;font-variant-ligatures:normal;font-variant-position:normal;font-variant-caps:normal;font-variant-numeric:normal;font-variant-alternates:normal;font-feature-settings:normal;text-indent:0;text-align:start;text-decoration:none;text-decoration-line:none;text-decoration-style:solid;text-decoration-color:#000000;letter-spacing:normal;word-spacing:normal;text-transform:none;writing-mode:lr-tb;direction:ltr;text-orientation:mixed;dominant-baseline:auto;baseline-shift:baseline;text-anchor:start;white-space:normal;shape-padding:0;clip-rule:nonzero;display:inline;overflow:visible;visibility:visible;opacity:1;isolation:auto;mix-blend-mode:normal;color-interpolation:sRGB;color-interpolation-filters:linearRGB;solid-color:#000000;solid-opacity:1;vector-effect:none;fill:#44aa00;fill-opacity:1;fill-rule:evenodd;stroke:none;stroke-width:0.24712303;stroke-linecap:square;stroke-linejoin:round;stroke-miterlimit:4.4000001;stroke-dasharray:none;stroke-dashoffset:0;stroke-opacity:1;paint-order:markers stroke fill;color-rendering:auto;image-rendering:auto;shape-rendering:auto;text-rendering:auto;enable-background:accumulate"
       d="m 107.04309,132.85089 c -0.0212,0.004 -0.0378,0.009 -0.0539,0.0156 -0.0323,0.0132 -0.0652,0.0312 -0.10295,0.0532 -0.0755,0.0442 -0.16868,0.1077 -0.27781,0.1848 -0.21827,0.1543 -0.49496,0.36381 -0.76643,0.58098 -0.27148,0.21717 -0.53713,0.44153 -0.73702,0.6217 -0.0999,0.0901 -0.18299,0.1688 -0.24349,0.23333 -0.0302,0.0323 -0.0552,0.0598 -0.0752,0.0876 -0.02,0.028 -0.0519,0.0434 -0.0425,0.12686 0.01,0.0834 0.0457,0.0917 0.0719,0.11431 0.0262,0.0226 0.0564,0.0451 0.0932,0.0688 0.0735,0.0477 0.17197,0.10213 0.28925,0.16444 0.23455,0.12453 0.54249,0.27432 0.85468,0.41656 0.31218,0.14222 0.62765,0.27644 0.87428,0.37113 0.12332,0.0473 0.22857,0.0858 0.31213,0.10959 0.0418,0.012 0.078,0.0204 0.11276,0.0251 0.0174,0.002 0.034,0.004 0.0556,0.003 0.0216,-0.001 0.0524,-0.003 0.0899,-0.0328 0.0375,-0.03 0.0412,-0.0538 0.0474,-0.072 0.006,-0.0183 0.009,-0.0348 0.0114,-0.0517 0.005,-0.0339 0.007,-0.0707 0.008,-0.11589 0.002,-0.0903 -0.002,-0.20867 -0.01,-0.34764 -0.0161,-0.27795 -0.0493,-0.63697 -0.0899,-0.99598 -0.0406,-0.35899 -0.0878,-0.71717 -0.134,-0.99127 -0.0231,-0.13705 -0.0451,-0.25243 -0.067,-0.33981 -0.011,-0.0437 -0.0218,-0.0809 -0.0343,-0.11275 -0.006,-0.0159 -0.0125,-0.0302 -0.0229,-0.047 -0.0104,-0.0167 -0.0211,-0.0402 -0.067,-0.0611 -0.0459,-0.0209 -0.0753,-0.0135 -0.0964,-0.009 z m -0.0278,0.27874 c 8.1e-4,0.003 7.4e-4,0.004 0.002,0.008 0.0192,0.0764 0.0412,0.18893 0.0637,0.32258 0.0451,0.26733 0.0938,0.6214 0.134,0.97719 0.0402,0.35578 0.0725,0.71386 0.0883,0.98501 0.008,0.13556 0.0114,0.24964 0.01,0.32885 -1.6e-4,0.008 -0.001,0.01 -0.002,0.0173 -0.07,-0.02 -0.17155,-0.0559 -0.29088,-0.10179 -0.23867,-0.0917 -0.54938,-0.22429 -0.85795,-0.36487 -0.30857,-0.14058 -0.61441,-0.28968 -0.8416,-0.41029 -0.1136,-0.0602 -0.20892,-0.1131 -0.27128,-0.15347 -0.009,-0.007 -0.0118,-0.009 -0.0196,-0.0141 0.007,-0.008 0.009,-0.0126 0.018,-0.0219 0.0519,-0.0554 0.13176,-0.13178 0.22879,-0.21924 0.19405,-0.17491 0.45867,-0.39592 0.72721,-0.61074 0.26854,-0.21481 0.5417,-0.42352 0.75336,-0.57314 0.10431,-0.0737 0.19447,-0.13165 0.2582,-0.16914 z"
       id="path1017-57"
       inkscape:connector-curvature="0" />
    <path
       style="color:#000000;font-style:normal;font-variant:normal;font-weight:normal;font-stretch:normal;font-size:medium;line-height:normal;font-family:sans-serif;font-variant-ligatures:normal;font-variant-position:normal;font-variant-caps:normal;font-variant-numeric:normal;font-variant-alternates:normal;font-feature-settings:normal;text-indent:0;text-align:start;text-decoration:none;text-decoration-line:none;text-decoration-style:solid;text-decoration-color:#000000;letter-spacing:normal;word-spacing:normal;text-transform:none;writing-mode:lr-tb;direction:ltr;text-orientation:mixed;dominant-baseline:auto;baseline-shift:baseline;text-anchor:start;white-space:normal;shape-padding:0;clip-rule:nonzero;display:inline;overflow:visible;visibility:visible;opacity:1;isolation:auto;mix-blend-mode:normal;color-interpolation:sRGB;color-interpolation-filters:linearRGB;solid-color:#000000;solid-opacity:1;vector-effect:none;fill:#44aa00;fill-opacity:1;fill-rule:evenodd;stroke:none;stroke-width:0.32762322;stroke-linecap:square;stroke-linejoin:round;stroke-miterlimit:4.4000001;stroke-dasharray:none;stroke-dashoffset:0;stroke-opacity:1;paint-order:markers stroke fill;color-rendering:auto;image-rendering:auto;shape-rendering:auto;text-rendering:auto;enable-background:accumulate"
       d="m 101.63068,142.54906 c -0.027,0.004 -0.0484,0.0124 -0.0703,0.0204 -0.0437,0.016 -0.0897,0.0366 -0.14218,0.0643 -0.105,0.0551 -0.23642,0.1349 -0.38893,0.23177 -0.30504,0.19374 -0.69076,0.45847 -1.070394,0.73131 -0.379628,0.27284 -0.751662,0.55351 -1.031168,0.77987 -0.139754,0.11318 -0.25687,0.2117 -0.341545,0.29283 -0.04234,0.0405 -0.07625,0.0771 -0.104585,0.11276 -0.01417,0.0178 -0.02698,0.0344 -0.03922,0.058 -0.01224,0.0235 -0.03047,0.0539 -0.02287,0.11432 0.0076,0.0602 0.03295,0.0849 0.05066,0.10491 0.01771,0.02 0.03411,0.0344 0.05229,0.0485 0.03636,0.0282 0.07792,0.0547 0.129099,0.0845 0.102369,0.0596 0.239837,0.12859 0.403643,0.20671 0.327614,0.15626 0.759832,0.3444 1.19622,0.52304 0.43639,0.17863 0.87641,0.34789 1.22074,0.46666 0.17216,0.0594 0.32065,0.10658 0.43632,0.13624 0.0578,0.0148 0.10557,0.0256 0.15198,0.0313 0.0232,0.003 0.0462,0.004 0.0735,0.003 0.0273,-0.001 0.0637,-0.002 0.11439,-0.0391 0.0507,-0.0365 0.061,-0.0693 0.0703,-0.094 0.009,-0.0247 0.0127,-0.0452 0.0163,-0.0674 0.007,-0.0442 0.0101,-0.093 0.0114,-0.15033 0.003,-0.11472 -0.002,-0.26347 -0.0131,-0.43847 -0.0226,-0.35002 -0.0691,-0.8029 -0.12583,-1.25437 -0.0568,-0.45146 -0.12474,-0.90138 -0.18956,-1.24652 -0.0324,-0.17257 -0.0638,-0.31825 -0.0948,-0.42908 -0.0155,-0.0554 -0.031,-0.10112 -0.049,-0.14251 -0.009,-0.0207 -0.0176,-0.0406 -0.0327,-0.0626 -0.0151,-0.0219 -0.0332,-0.0513 -0.0915,-0.0752 -0.0583,-0.0238 -0.0923,-0.0157 -0.1193,-0.0111 z m -0.036,0.36017 c 0.002,0.007 0.003,0.007 0.005,0.0142 0.0266,0.095 0.0584,0.23641 0.0899,0.40402 0.063,0.33522 0.12849,0.78097 0.18466,1.22774 0.0562,0.44675 0.10227,0.89559 0.1242,1.23556 0.011,0.16998 0.0153,0.31354 0.0131,0.41185 -1.7e-4,0.007 -0.001,0.009 -0.002,0.0157 -0.006,-0.001 -0.008,-0.001 -0.0147,-0.003 -0.0991,-0.0255 -0.24296,-0.0707 -0.41019,-0.12841 -0.33444,-0.11537 -0.77092,-0.28208 -1.20275,-0.45884 -0.431837,-0.17676 -0.8584,-0.36342 -1.176615,-0.51521 -0.159108,-0.076 -0.2914,-0.14315 -0.37913,-0.19418 -0.0069,-0.004 -0.0084,-0.006 -0.01471,-0.009 0.0051,-0.004 0.0058,-0.007 0.01144,-0.0125 0.07257,-0.0695 0.184555,-0.16568 0.320299,-0.27562 0.271488,-0.21985 0.640796,-0.49734 1.016466,-0.76734 0.37566,-0.26998 0.75776,-0.53216 1.05404,-0.72035 0.14814,-0.0941 0.27607,-0.17038 0.36606,-0.21766 0.007,-0.003 0.009,-0.003 0.0147,-0.007 z"
       id="path1017-4"
       inkscape:connector-curvature="0" />
    <path
       style="color:#000000;font-style:normal;font-variant:normal;font-weight:normal;font-stretch:normal;font-size:medium;line-height:normal;font-family:sans-serif;font-variant-ligatures:normal;font-variant-position:normal;font-variant-caps:normal;font-variant-numeric:normal;font-variant-alternates:normal;font-feature-settings:normal;text-indent:0;text-align:start;text-decoration:none;text-decoration-line:none;text-decoration-style:solid;text-decoration-color:#000000;letter-spacing:normal;word-spacing:normal;text-transform:none;writing-mode:lr-tb;direction:ltr;text-orientation:mixed;dominant-baseline:auto;baseline-shift:baseline;text-anchor:start;white-space:normal;shape-padding:0;clip-rule:nonzero;display:inline;overflow:visible;visibility:visible;opacity:1;isolation:auto;mix-blend-mode:normal;color-interpolation:sRGB;color-interpolation-filters:linearRGB;solid-color:#000000;solid-opacity:1;vector-effect:none;fill:#44aa00;fill-opacity:1;fill-rule:evenodd;stroke:none;stroke-width:0.19551085;stroke-linecap:square;stroke-linejoin:round;stroke-miterlimit:4.4000001;stroke-dasharray:none;stroke-dashoffset:0;stroke-opacity:1;paint-order:markers stroke fill;color-rendering:auto;image-rendering:auto;shape-rendering:auto;text-rendering:auto;enable-background:accumulate"
       d="m 118.06565,147.95486 c -0.0161,0.002 -0.0294,0.007 -0.0425,0.0111 -0.0261,0.01 -0.052,0.0227 -0.0833,0.0391 -0.0627,0.033 -0.14104,0.0801 -0.23206,0.13781 -0.18203,0.11562 -0.41241,0.27409 -0.63896,0.43691 -0.22654,0.16281 -0.44929,0.33002 -0.61608,0.4651 -0.0834,0.0675 -0.15211,0.12697 -0.20265,0.17539 -0.0253,0.0243 -0.0468,0.0445 -0.0637,0.0657 -0.009,0.0111 -0.0156,0.0219 -0.0228,0.036 -0.008,0.014 -0.0176,0.0313 -0.0131,0.0674 0.004,0.036 0.0188,0.0507 0.0294,0.0626 0.01,0.012 0.0202,0.0214 0.0311,0.0297 0.0217,0.0169 0.0479,0.0323 0.0784,0.0501 0.0611,0.0355 0.14248,0.0771 0.24023,0.12372 0.19551,0.0932 0.45372,0.20502 0.71414,0.31163 0.26042,0.10657 0.52173,0.20786 0.72721,0.27875 0.10279,0.0354 0.1908,0.0637 0.25983,0.0814 0.0345,0.009 0.0638,0.0154 0.0915,0.0188 0.0138,0.001 0.0278,0.002 0.0441,0.001 0.0163,-7e-4 0.0383,-0.001 0.0686,-0.0235 0.0303,-0.0217 0.0353,-0.0417 0.0409,-0.0564 0.006,-0.0147 0.008,-0.0259 0.01,-0.0391 0.004,-0.0264 0.008,-0.0566 0.008,-0.0909 0.001,-0.0685 -0.001,-0.15708 -0.008,-0.26152 -0.0135,-0.20887 -0.0413,-0.47755 -0.0752,-0.74697 -0.0339,-0.26941 -0.0741,-0.53789 -0.11276,-0.74384 -0.0194,-0.10301 -0.0387,-0.19068 -0.0571,-0.25683 -0.009,-0.0331 -0.0186,-0.0614 -0.0294,-0.0861 -0.006,-0.0124 -0.01,-0.0229 -0.0196,-0.036 -0.009,-0.013 -0.0191,-0.0312 -0.0539,-0.0453 -0.0347,-0.0143 -0.0558,-0.009 -0.0719,-0.007 z m -0.0213,0.21455 c 0.001,0.004 0.002,0.004 0.003,0.009 0.0158,0.0567 0.0335,0.13957 0.0522,0.2396 0.0375,0.20005 0.0776,0.46628 0.11114,0.73288 0.0335,0.26661 0.062,0.53471 0.0752,0.73759 0.007,0.10145 0.01,0.18718 0.008,0.24586 -1e-4,0.004 1.6e-4,0.006 0,0.009 -0.004,-7.1e-4 -0.007,-2.7e-4 -0.0115,-0.001 -0.0591,-0.0152 -0.1437,-0.0423 -0.2435,-0.0767 -0.19958,-0.0688 -0.4597,-0.16857 -0.7174,-0.27406 -0.2577,-0.10546 -0.51443,-0.21635 -0.70434,-0.30693 -0.095,-0.0453 -0.17316,-0.087 -0.22551,-0.11745 -0.003,-0.002 -0.004,-0.002 -0.008,-0.004 0.003,-0.003 0.003,-0.004 0.007,-0.008 0.0433,-0.0415 0.11025,-0.0988 0.1912,-0.16442 0.16201,-0.1312 0.3821,-0.29615 0.60628,-0.45726 0.22419,-0.16112 0.45236,-0.31835 0.62916,-0.43065 0.0884,-0.0561 0.16528,-0.10179 0.21898,-0.12998 0.003,-0.001 0.004,-0.001 0.008,-0.003 z"
       id="path1017-2"
       inkscape:connector-curvature="0" />
    <path
       style="color:#000000;font-style:normal;font-variant:normal;font-weight:normal;font-stretch:normal;font-size:medium;line-height:normal;font-family:sans-serif;font-variant-ligatures:normal;font-variant-position:normal;font-variant-caps:normal;font-variant-numeric:normal;font-variant-alternates:normal;font-feature-settings:normal;text-indent:0;text-align:start;text-decoration:none;text-decoration-line:none;text-decoration-style:solid;text-decoration-color:#000000;letter-spacing:normal;word-spacing:normal;text-transform:none;writing-mode:lr-tb;direction:ltr;text-orientation:mixed;dominant-baseline:auto;baseline-shift:baseline;text-anchor:start;white-space:normal;shape-padding:0;clip-rule:nonzero;display:inline;overflow:visible;visibility:visible;opacity:1;isolation:auto;mix-blend-mode:normal;color-interpolation:sRGB;color-interpolation-filters:linearRGB;solid-color:#000000;solid-opacity:1;vector-effect:none;fill:#44aa00;fill-opacity:1;fill-rule:evenodd;stroke:none;stroke-width:0.24712303;stroke-linecap:square;stroke-linejoin:round;stroke-miterlimit:4.4000001;stroke-dasharray:none;stroke-dashoffset:0;stroke-opacity:1;paint-order:markers stroke fill;color-rendering:auto;image-rendering:auto;shape-rendering:auto;text-rendering:auto;enable-background:accumulate"
       d="m 142.30548,149.1779 c -0.0212,0.004 -0.0378,0.01 -0.0539,0.0173 -0.0323,0.0132 -0.0652,0.0295 -0.1029,0.0517 -0.0755,0.0442 -0.16868,0.10758 -0.27782,0.18478 -0.21826,0.15431 -0.49495,0.3654 -0.76643,0.58256 -0.27147,0.21716 -0.53713,0.43994 -0.73701,0.62012 -0.0999,0.0901 -0.183,0.1688 -0.24349,0.23334 -0.0303,0.0323 -0.0552,0.0613 -0.0752,0.0893 -0.0199,0.028 -0.0519,0.0419 -0.0425,0.12528 0.009,0.0834 0.0457,0.0916 0.072,0.11431 0.0262,0.0226 0.0563,0.0451 0.0931,0.0688 0.0735,0.0477 0.17197,0.10212 0.28925,0.16443 0.23456,0.12454 0.54249,0.27432 0.85468,0.41655 0.31219,0.14224 0.62766,0.27801 0.87428,0.37272 0.12332,0.0473 0.22857,0.0842 0.31213,0.10802 0.0418,0.012 0.0781,0.0204 0.11276,0.0251 0.0174,0.002 0.034,0.004 0.0556,0.003 0.0216,-0.001 0.0523,-0.003 0.0899,-0.0328 0.0375,-0.03 0.0412,-0.0538 0.0474,-0.0719 0.007,-0.0183 0.01,-0.0332 0.013,-0.0501 0.006,-0.0339 0.008,-0.0723 0.008,-0.11745 0.002,-0.0903 -0.003,-0.20868 -0.0115,-0.34766 -0.0162,-0.27794 -0.0493,-0.63696 -0.0899,-0.99597 -0.0405,-0.35899 -0.0877,-0.71716 -0.134,-0.99127 -0.0232,-0.13704 -0.045,-0.25244 -0.067,-0.3398 -0.0111,-0.0437 -0.0218,-0.0809 -0.0343,-0.11276 -0.007,-0.0159 -0.0125,-0.0302 -0.0228,-0.047 -0.01,-0.0167 -0.0211,-0.0402 -0.067,-0.0611 -0.0459,-0.0209 -0.0753,-0.0135 -0.0965,-0.009 z m -0.0277,0.27874 c 8.1e-4,0.003 7.3e-4,0.004 0.002,0.008 0.0192,0.0764 0.0412,0.18894 0.0637,0.3226 0.0451,0.26732 0.0938,0.62139 0.134,0.97717 0.0402,0.35579 0.0725,0.71388 0.0882,0.98502 0.008,0.13557 0.0115,0.24964 0.01,0.32886 -1.6e-4,0.008 -0.001,0.01 -0.002,0.0173 -0.0701,-0.02 -0.17155,-0.0559 -0.29088,-0.10179 -0.23867,-0.0917 -0.54938,-0.22431 -0.85794,-0.36488 -0.30857,-0.14059 -0.61442,-0.28967 -0.84161,-0.4103 -0.11359,-0.0602 -0.20891,-0.11309 -0.27128,-0.15347 -0.009,-0.007 -0.0118,-0.009 -0.0196,-0.0142 0.007,-0.008 0.0111,-0.0124 0.0196,-0.0219 0.0519,-0.0554 0.13013,-0.13179 0.22716,-0.21925 0.19405,-0.17491 0.45868,-0.39592 0.72721,-0.61072 0.26854,-0.21482 0.5417,-0.42354 0.75335,-0.57316 0.10436,-0.0737 0.19447,-0.13165 0.25821,-0.16913 z"
       id="path1017-57-5"
       inkscape:connector-curvature="0" />
    <path
       style="color:#000000;font-style:normal;font-variant:normal;font-weight:normal;font-stretch:normal;font-size:medium;line-height:normal;font-family:sans-serif;font-variant-ligatures:normal;font-variant-position:normal;font-variant-caps:normal;font-variant-numeric:normal;font-variant-alternates:normal;font-feature-settings:normal;text-indent:0;text-align:start;text-decoration:none;text-decoration-line:none;text-decoration-style:solid;text-decoration-color:#000000;letter-spacing:normal;word-spacing:normal;text-transform:none;writing-mode:lr-tb;direction:ltr;text-orientation:mixed;dominant-baseline:auto;baseline-shift:baseline;text-anchor:start;white-space:normal;shape-padding:0;clip-rule:nonzero;display:inline;overflow:visible;visibility:visible;opacity:1;isolation:auto;mix-blend-mode:normal;color-interpolation:sRGB;color-interpolation-filters:linearRGB;solid-color:#000000;solid-opacity:1;vector-effect:none;fill:#44aa00;fill-opacity:1;fill-rule:evenodd;stroke:none;stroke-width:0.24712303;stroke-linecap:square;stroke-linejoin:round;stroke-miterlimit:4.4000001;stroke-dasharray:none;stroke-dashoffset:0;stroke-opacity:1;paint-order:markers stroke fill;color-rendering:auto;image-rendering:auto;shape-rendering:auto;text-rendering:auto;enable-background:accumulate"
       d="m 154.63865,147.35977 c -0.0212,0.004 -0.0362,0.009 -0.0523,0.0157 -0.0323,0.0132 -0.0651,0.0312 -0.10291,0.0532 -0.0755,0.0442 -0.1703,0.10769 -0.27943,0.18479 -0.21827,0.1543 -0.49334,0.36382 -0.76481,0.58097 -0.27148,0.21717 -0.53875,0.44152 -0.73864,0.62171 -0.10001,0.0901 -0.18299,0.1688 -0.2435,0.23332 -0.0303,0.0323 -0.0552,0.0598 -0.0752,0.0878 -0.0199,0.028 -0.0503,0.0434 -0.0409,0.12683 0.01,0.0834 0.0441,0.0917 0.0703,0.11432 0.0262,0.0226 0.0564,0.0451 0.0931,0.0688 0.0735,0.0477 0.17196,0.10223 0.28924,0.16442 0.23455,0.12453 0.54412,0.27433 0.85632,0.41656 0.31218,0.14224 0.62601,0.27645 0.87264,0.37114 0.12332,0.0473 0.2302,0.0858 0.31377,0.10959 0.0418,0.012 0.0764,0.0204 0.11114,0.0251 0.0174,0.002 0.0356,0.004 0.0573,0.003 0.0216,-0.001 0.0507,-0.003 0.0883,-0.0328 0.0375,-0.03 0.0429,-0.0538 0.049,-0.0721 0.006,-0.0183 0.009,-0.0348 0.0115,-0.0516 0.006,-0.0339 0.008,-0.0707 0.008,-0.11589 10e-4,-0.0903 -0.001,-0.20868 -0.01,-0.34765 -0.0162,-0.27795 -0.0493,-0.63698 -0.0899,-0.99597 -0.0406,-0.35899 -0.0894,-0.71717 -0.13563,-0.99126 -0.0231,-0.13706 -0.045,-0.25246 -0.067,-0.33983 -0.0111,-0.0437 -0.0217,-0.0808 -0.0343,-0.11276 -0.006,-0.0159 -0.0125,-0.0302 -0.0228,-0.047 -0.01,-0.0167 -0.0211,-0.0402 -0.067,-0.0611 -0.046,-0.0209 -0.0753,-0.0135 -0.0965,-0.009 z m -0.0278,0.27719 c 7.3e-4,0.004 0.002,0.004 0.003,0.009 0.0192,0.0764 0.0411,0.18737 0.0638,0.32102 0.0451,0.26733 0.0922,0.62296 0.13239,0.97875 0.0402,0.3558 0.0742,0.71231 0.0899,0.98345 0.008,0.13556 0.0115,0.2512 0.01,0.33042 -1.7e-4,0.008 -0.001,0.01 -0.001,0.0173 -0.0701,-0.0199 -0.17155,-0.0559 -0.29088,-0.10179 -0.23867,-0.0917 -0.55102,-0.2243 -0.85958,-0.36487 -0.30856,-0.14058 -0.61441,-0.28968 -0.84161,-0.41029 -0.11359,-0.0602 -0.20728,-0.1131 -0.26963,-0.15348 -0.009,-0.007 -0.0118,-0.009 -0.0196,-0.0141 0.007,-0.008 0.009,-0.0126 0.018,-0.0219 0.0519,-0.0554 0.13175,-0.13177 0.22877,-0.21923 0.19406,-0.17492 0.45869,-0.39593 0.72721,-0.61074 0.26854,-0.21482 0.54172,-0.42353 0.75336,-0.57315 0.10457,-0.0739 0.19281,-0.13324 0.25658,-0.17071 z"
       id="path1017-57-8"
       inkscape:connector-curvature="0" />
    <path
       style="color:#000000;font-style:normal;font-variant:normal;font-weight:normal;font-stretch:normal;font-size:medium;line-height:normal;font-family:sans-serif;font-variant-ligatures:normal;font-variant-position:normal;font-variant-caps:normal;font-variant-numeric:normal;font-variant-alternates:normal;font-feature-settings:normal;text-indent:0;text-align:start;text-decoration:none;text-decoration-line:none;text-decoration-style:solid;text-decoration-color:#000000;letter-spacing:normal;word-spacing:normal;text-transform:none;writing-mode:lr-tb;direction:ltr;text-orientation:mixed;dominant-baseline:auto;baseline-shift:baseline;text-anchor:start;white-space:normal;shape-padding:0;clip-rule:nonzero;display:inline;overflow:visible;visibility:visible;opacity:1;isolation:auto;mix-blend-mode:normal;color-interpolation:sRGB;color-interpolation-filters:linearRGB;solid-color:#000000;solid-opacity:1;vector-effect:none;fill:#44aa00;fill-opacity:1;fill-rule:nonzero;stroke:none;stroke-width:0.21670911px;stroke-linecap:butt;stroke-linejoin:miter;stroke-miterlimit:4;stroke-dasharray:none;stroke-dashoffset:0;stroke-opacity:1;color-rendering:auto;image-rendering:auto;shape-rendering:auto;text-rendering:auto;enable-background:accumulate"
       d="m 81.257324,72.356698 c -4.539701,2.768349 -5.888132,6.797759 -5.572561,11.423899 0.31557,4.62614 2.277472,9.86249 4.340387,15.11963 2.062915,5.257133 4.22753,10.536073 4.963013,15.226113 0.735482,4.69006 0.05248,8.77248 -3.572323,11.70577 -3.666617,2.96715 -5.679728,5.47597 -6.605365,7.76263 -0.925638,2.28665 -0.75624,4.34761 -0.08007,6.38609 1.352332,4.07698 4.703609,8.0895 5.459803,13.90287 l 0.220615,-0.0266 c -0.764556,-5.87765 -4.136749,-9.92216 -5.469609,-13.94043 -0.666429,-2.00914 -0.831059,-4.00645 0.07517,-6.24517 0.906232,-2.23872 2.891532,-4.72271 6.541631,-7.67648 3.69192,-2.98761 4.390462,-7.17417 3.64913,-11.90153 -0.741331,-4.72731 -2.91233,-10.01324 -4.97445,-15.268353 -2.062122,-5.25512 -4.013303,-10.47923 -4.325681,-15.05857 -0.312379,-4.57933 0.994862,-8.50097 5.469608,-11.229707 z"
       id="path1094"
       inkscape:connector-curvature="0" />
    <path
       style="color:#000000;font-style:normal;font-variant:normal;font-weight:normal;font-stretch:normal;font-size:medium;line-height:normal;font-family:sans-serif;font-variant-ligatures:normal;font-variant-position:normal;font-variant-caps:normal;font-variant-numeric:normal;font-variant-alternates:normal;font-feature-settings:normal;text-indent:0;text-align:start;text-decoration:none;text-decoration-line:none;text-decoration-style:solid;text-decoration-color:#000000;letter-spacing:normal;word-spacing:normal;text-transform:none;writing-mode:lr-tb;direction:ltr;text-orientation:mixed;dominant-baseline:auto;baseline-shift:baseline;text-anchor:start;white-space:normal;shape-padding:0;clip-rule:nonzero;display:inline;overflow:visible;visibility:visible;opacity:1;isolation:auto;mix-blend-mode:normal;color-interpolation:sRGB;color-interpolation-filters:linearRGB;solid-color:#000000;solid-opacity:1;vector-effect:none;fill:#44aa00;fill-opacity:1;fill-rule:nonzero;stroke:none;stroke-width:0.21670911px;stroke-linecap:butt;stroke-linejoin:miter;stroke-miterlimit:4;stroke-dasharray:none;stroke-dashoffset:0;stroke-opacity:1;color-rendering:auto;image-rendering:auto;shape-rendering:auto;text-rendering:auto;enable-background:accumulate"
       d="m 143.58177,93.480337 -0.22061,0.0126 2.47416,40.891133 0.22061,-0.0125 z"
       id="path1098"
       inkscape:connector-curvature="0" />
    <path
       style="color:#000000;font-style:normal;font-variant:normal;font-weight:normal;font-stretch:normal;font-size:medium;line-height:normal;font-family:sans-serif;font-variant-ligatures:normal;font-variant-position:normal;font-variant-caps:normal;font-variant-numeric:normal;font-variant-alternates:normal;font-feature-settings:normal;text-indent:0;text-align:start;text-decoration:none;text-decoration-line:none;text-decoration-style:solid;text-decoration-color:#000000;letter-spacing:normal;word-spacing:normal;text-transform:none;writing-mode:lr-tb;direction:ltr;text-orientation:mixed;dominant-baseline:auto;baseline-shift:baseline;text-anchor:start;white-space:normal;shape-padding:0;clip-rule:nonzero;display:inline;overflow:visible;visibility:visible;opacity:1;isolation:auto;mix-blend-mode:normal;color-interpolation:sRGB;color-interpolation-filters:linearRGB;solid-color:#000000;solid-opacity:1;vector-effect:none;fill:#44aa00;fill-opacity:1;fill-rule:nonzero;stroke:none;stroke-width:0.21670911px;stroke-linecap:butt;stroke-linejoin:miter;stroke-miterlimit:4;stroke-dasharray:none;stroke-dashoffset:0;stroke-opacity:1;color-rendering:auto;image-rendering:auto;shape-rendering:auto;text-rendering:auto;enable-background:accumulate"
       d="m 161.29304,76.135427 -0.22224,0.003 0.41671,33.496523 -17.00366,1.17136 0.0164,0.21141 17.2112,-1.18546 z"
       id="path1100"
       inkscape:connector-curvature="0" />
    <path
       style="color:#000000;font-style:normal;font-variant:normal;font-weight:normal;font-stretch:normal;font-size:medium;line-height:normal;font-family:sans-serif;font-variant-ligatures:normal;font-variant-position:normal;font-variant-caps:normal;font-variant-numeric:normal;font-variant-alternates:normal;font-feature-settings:normal;text-indent:0;text-align:start;text-decoration:none;text-decoration-line:none;text-decoration-style:solid;text-decoration-color:#000000;letter-spacing:normal;word-spacing:normal;text-transform:none;writing-mode:lr-tb;direction:ltr;text-orientation:mixed;dominant-baseline:auto;baseline-shift:baseline;text-anchor:start;white-space:normal;shape-padding:0;clip-rule:nonzero;display:inline;overflow:visible;visibility:visible;opacity:1;isolation:auto;mix-blend-mode:normal;color-interpolation:sRGB;color-interpolation-filters:linearRGB;solid-color:#000000;solid-opacity:1;vector-effect:none;fill:#44aa00;fill-opacity:1;fill-rule:nonzero;stroke:none;stroke-width:0.21670911px;stroke-linecap:butt;stroke-linejoin:miter;stroke-miterlimit:4;stroke-dasharray:none;stroke-dashoffset:0;stroke-opacity:1;color-rendering:auto;image-rendering:auto;shape-rendering:auto;text-rendering:auto;enable-background:accumulate"
       d="m 174.57567,98.074947 -13.07998,0.30693 0.006,0.21141 12.85283,-0.30067 v 35.547973 l -28.41026,0.43065 0.003,0.21298 28.62924,-0.43535 z"
       id="path1102"
       inkscape:connector-curvature="0" />
    <path
       style="color:#000000;font-style:normal;font-variant:normal;font-weight:normal;font-stretch:normal;font-size:medium;line-height:normal;font-family:sans-serif;font-variant-ligatures:normal;font-variant-position:normal;font-variant-caps:normal;font-variant-numeric:normal;font-variant-alternates:normal;font-feature-settings:normal;text-indent:0;text-align:start;text-decoration:none;text-decoration-line:none;text-decoration-style:solid;text-decoration-color:#000000;letter-spacing:normal;word-spacing:normal;text-transform:none;writing-mode:lr-tb;direction:ltr;text-orientation:mixed;dominant-baseline:auto;baseline-shift:baseline;text-anchor:start;white-space:normal;shape-padding:0;clip-rule:nonzero;display:inline;overflow:visible;visibility:visible;opacity:1;isolation:auto;mix-blend-mode:normal;color-interpolation:sRGB;color-interpolation-filters:linearRGB;solid-color:#000000;solid-opacity:1;vector-effect:none;fill:#44aa00;fill-opacity:1;fill-rule:nonzero;stroke:none;stroke-width:0.21670911px;stroke-linecap:butt;stroke-linejoin:miter;stroke-miterlimit:4;stroke-dasharray:none;stroke-dashoffset:0;stroke-opacity:1;color-rendering:auto;image-rendering:auto;shape-rendering:auto;text-rendering:auto;enable-background:accumulate"
       d="m 144.77309,115.20061 -17.94659,0.49329 0.007,0.21141 17.94659,-0.49172 z"
       id="path1104"
       inkscape:connector-curvature="0" />
    <path
       style="color:#000000;font-style:normal;font-variant:normal;font-weight:normal;font-stretch:normal;font-size:medium;line-height:normal;font-family:sans-serif;font-variant-ligatures:normal;font-variant-position:normal;font-variant-caps:normal;font-variant-numeric:normal;font-variant-alternates:normal;font-feature-settings:normal;text-indent:0;text-align:start;text-decoration:none;text-decoration-line:none;text-decoration-style:solid;text-decoration-color:#000000;letter-spacing:normal;word-spacing:normal;text-transform:none;writing-mode:lr-tb;direction:ltr;text-orientation:mixed;dominant-baseline:auto;baseline-shift:baseline;text-anchor:start;white-space:normal;shape-padding:0;clip-rule:nonzero;display:inline;overflow:visible;visibility:visible;opacity:1;isolation:auto;mix-blend-mode:normal;color-interpolation:sRGB;color-interpolation-filters:linearRGB;solid-color:#000000;solid-opacity:1;vector-effect:none;fill:#44aa00;fill-opacity:1;fill-rule:nonzero;stroke:none;stroke-width:0.21670911px;stroke-linecap:butt;stroke-linejoin:miter;stroke-miterlimit:4;stroke-dasharray:none;stroke-dashoffset:0;stroke-opacity:1;color-rendering:auto;image-rendering:auto;shape-rendering:auto;text-rendering:auto;enable-background:accumulate"
       d="m 169.5947,133.94395 -0.22227,0.001 0.12911,22.37643 h 0.22226 z"
       id="path1106"
       inkscape:connector-curvature="0" />
  </g>
</svg>
